<svg width="200" height="200" viewBox="0 0 200 200" xmlns="http://www.w3.org/2000/svg">
  <defs>
    < radialGradient id="grad1" cx="50%" cy="50%" r="50%" fx="50%" fy="50%">
      <stop offset="0%" style="stop-color:#F48FB1;stop-opacity:1" />
      <stop offset="100%" style="stop-color:#000;stop-opacity:0.3" />
    </radialGradient>
  </defs>
  <circle cx="100" cy="110" r="70" fill="url(#grad1)" />
  <path d="M80 110 Q80 90 70 90 Q60 90 60 100 Q60 110 80 125 Q100 110 100 100 Q100 90 90 90 Q80 90 80 100" fill="red" transform="translate(-10,-10) scale(0.8)" /><path d="M120 110 Q120 90 110 90 Q100 90 100 100 Q100 110 120 125 Q140 110 140 100 Q140 90 130 90 Q120 90 120 100" fill="red" transform="translate(10,-10) scale(1.1)" />
  <path d="M80 140 Q100 160 120 140" stroke="white" stroke-width="4" fill="none" />
  
</svg>