<svg xmlns="http://www.w3.org/2000/svg" width="1024" height="1024" viewBox="0 0 1024 1024" role="img" aria-label="Gravity Well Gauntlet">
  <defs>
    <linearGradient id="bgGradient" x1="0" y1="0" x2="1" y2="1">
      <stop offset="0%" stop-color="#0d0e14"/>
      <stop offset="45%" stop-color="#111111"/>
      <stop offset="100%" stop-color="#191919"/>
    </linearGradient>
    <radialGradient id="nebula" cx="50%" cy="40%" r="70%">
      <stop offset="0%" stop-color="rgba(169,169,169,0.46)"/>
      <stop offset="55%" stop-color="rgba(79,79,79,0.18)"/>
      <stop offset="100%" stop-color="rgba(79,79,79,0)"/>
    </radialGradient>
    <linearGradient id="frame" x1="0" y1="0" x2="1" y2="1">
      <stop offset="0%" stop-color="rgba(243,155,61,0.85)"/>
      <stop offset="50%" stop-color="rgba(79,79,79,0.82)"/>
      <stop offset="100%" stop-color="rgba(0,0,0,0.85)"/>
    </linearGradient>
    <linearGradient id="iconFill" x1="0" y1="0" x2="1" y2="1">
      <stop offset="0%" stop-color="#808080"/>
      <stop offset="58%" stop-color="#A9A9A9"/>
      <stop offset="100%" stop-color="#000000"/>
    </linearGradient>
    <filter id="glowLarge" x="-40%" y="-40%" width="180%" height="180%">
      <feGaussianBlur stdDeviation="10" result="blur"/>
      <feMerge>
        <feMergeNode in="blur"/>
        <feMergeNode in="SourceGraphic"/>
      </feMerge>
    </filter>
    <filter id="softShadow" x="-20%" y="-20%" width="140%" height="140%">
      <feDropShadow dx="0" dy="18" stdDeviation="28" flood-color="rgba(79,79,79,0.55)"/>
    </filter>
    <clipPath id="cardClip">
      <rect x="36" y="36" width="952" height="952" rx="48"/>
    </clipPath>
  </defs>

  <rect width="1024" height="1024" fill="url(#bgGradient)"/>
  <g clip-path="url(#cardClip)">
    <rect x="36" y="36" width="952" height="952" rx="48" fill="url(#bgGradient)"/>
    <ellipse cx="512" cy="360" rx="430" ry="310" fill="url(#nebula)"/>
    <circle cx="275.3" cy="421.7" r="1.8" fill="white" opacity="0.57"/>
<circle cx="822.5" cy="678.3" r="3.3" fill="white" opacity="0.77"/>
<circle cx="738.4" cy="241.3" r="1.8" fill="white" opacity="0.34"/>
<circle cx="574.0" cy="544.7" r="2.1" fill="white" opacity="0.72"/>
<circle cx="564.3" cy="406.1" r="3.3" fill="white" opacity="0.29"/>
<circle cx="582.7" cy="740.6" r="2.0" fill="white" opacity="0.68"/>
<circle cx="480.3" cy="612.9" r="3.0" fill="white" opacity="0.75"/>
<circle cx="477.6" cy="298.0" r="2.4" fill="white" opacity="0.49"/>
<circle cx="804.7" cy="323.7" r="3.1" fill="white" opacity="0.39"/>
<circle cx="283.5" cy="655.9" r="2.0" fill="white" opacity="0.58"/>
<circle cx="651.8" cy="306.8" r="4.2" fill="white" opacity="0.72"/>
<circle cx="655.8" cy="106.8" r="4.2" fill="white" opacity="0.79"/>
<circle cx="805.4" cy="380.5" r="2.5" fill="white" opacity="0.33"/>
<circle cx="678.0" cy="662.3" r="1.9" fill="white" opacity="0.57"/>
<circle cx="415.1" cy="194.1" r="4.7" fill="white" opacity="0.58"/>
<circle cx="453.1" cy="638.8" r="4.5" fill="white" opacity="0.73"/>
    <g transform="translate(761.2 563.4) rotate(58.3)" opacity="0.45">
<path d="M0 -17.4 L4.2 -4.2 L17.4 0 L4.2 4.2 L0 17.4 L-4.2 4.2 L-17.4 0 L-4.2 -4.2 Z" fill="#000000"/>
</g>
<g transform="translate(776.1 595.0) rotate(160.2)" opacity="0.51">
<path d="M0 -15.9 L3.8 -3.8 L15.9 0 L3.8 3.8 L0 15.9 L-3.8 3.8 L-15.9 0 L-3.8 -3.8 Z" fill="#000000"/>
</g>
<g transform="translate(394.0 411.5) rotate(81.2)" opacity="0.31">
<path d="M0 -17.0 L4.1 -4.1 L17.0 0 L4.1 4.1 L0 17.0 L-4.1 4.1 L-17.0 0 L-4.1 -4.1 Z" fill="#000000"/>
</g>
<g transform="translate(234.7 227.2) rotate(0.6)" opacity="0.41">
<path d="M0 -14.5 L3.5 -3.5 L14.5 0 L3.5 3.5 L0 14.5 L-3.5 3.5 L-14.5 0 L-3.5 -3.5 Z" fill="#000000"/>
</g>
<g transform="translate(311.7 352.5) rotate(141.5)" opacity="0.27">
<path d="M0 -16.3 L3.9 -3.9 L16.3 0 L3.9 3.9 L0 16.3 L-3.9 3.9 L-16.3 0 L-3.9 -3.9 Z" fill="#000000"/>
</g>
<g transform="translate(218.4 315.0) rotate(146.0)" opacity="0.30">
<path d="M0 -13.0 L3.1 -3.1 L13.0 0 L3.1 3.1 L0 13.0 L-3.1 3.1 L-13.0 0 L-3.1 -3.1 Z" fill="#000000"/>
</g>
<g transform="translate(249.3 396.7) rotate(77.2)" opacity="0.24">
<path d="M0 -13.2 L3.2 -3.2 L13.2 0 L3.2 3.2 L0 13.2 L-3.2 3.2 L-13.2 0 L-3.2 -3.2 Z" fill="#000000"/>
</g>
<g transform="translate(557.1 361.1) rotate(179.8)" opacity="0.27">
<path d="M0 -8.7 L2.1 -2.1 L8.7 0 L2.1 2.1 L0 8.7 L-2.1 2.1 L-8.7 0 L-2.1 -2.1 Z" fill="#000000"/>
</g>
<g transform="translate(290.4 434.1) rotate(173.0)" opacity="0.24">
<path d="M0 -10.3 L2.5 -2.5 L10.3 0 L2.5 2.5 L0 10.3 L-2.5 2.5 L-10.3 0 L-2.5 -2.5 Z" fill="#000000"/>
</g>
<g transform="translate(545.8 138.1) rotate(151.3)" opacity="0.34">
<path d="M0 -16.5 L4.0 -4.0 L16.5 0 L4.0 4.0 L0 16.5 L-4.0 4.0 L-16.5 0 L-4.0 -4.0 Z" fill="#000000"/>
</g>
    <circle cx="512" cy="390" r="304" fill="none" stroke="rgba(79,79,79,0.16)" stroke-width="28"/>
    <circle cx="512" cy="390" r="280" fill="none" stroke="rgba(169,169,169,0.26)" stroke-width="5"/>
    
        <path d="M260 690 L424 230" stroke="rgba(0,0,0,0.28)" stroke-width="18" stroke-linecap="round"/>
        <path d="M764 690 L600 230" stroke="rgba(79,79,79,0.22)" stroke-width="18" stroke-linecap="round"/>
        <path d="M220 610 L804 610" stroke="rgba(169,169,169,0.18)" stroke-width="8" stroke-linecap="round" stroke-dasharray="12 24"/>
        
    <g filter="url(#softShadow)">
      <circle cx="512" cy="392" r="226" fill="rgba(5,6,10,0.62)" stroke="rgba(243,155,61,0.22)" stroke-width="2"/>
      <circle cx="512" cy="392" r="178" fill="rgba(79,79,79,0.1)" stroke="rgba(0,0,0,0.24)" stroke-width="2"/>
      
    <g transform="translate(232 112) scale(5.6)">
      <path d="M 30 70 L 20 50 L 30 30 L 70 30 L 80 50 L 70 70 Z
        M 50 40 A 10 10 0 1 1 50 60 A 10 10 0 1 1 50 40" fill="url(#iconFill)" stroke="#333333" stroke-width="1.6" stroke-linejoin="round" filter="url(#glowLarge)"/>
      <path d="M 30 70 L 20 50 L 30 30 L 70 30 L 80 50 L 70 70 Z
        M 50 40 A 10 10 0 1 1 50 60 A 10 10 0 1 1 50 40" fill="none" stroke="white" stroke-width="0.55" opacity="0.38"/>
    </g>
    
    </g>

    <rect x="64" y="64" width="896" height="896" rx="34" fill="none" stroke="url(#frame)" stroke-width="3"/>

    <g transform="translate(92 760)">
      <rect x="0" y="0" width="840" height="172" rx="28" fill="rgba(5,6,10,0.45)" stroke="rgba(79,79,79,0.35)" stroke-width="2"/>
      <text x="34" y="42" fill="rgba(243,155,61,0.95)" font-size="22" font-family="Inter,Segoe UI,Arial,sans-serif" letter-spacing="3">1009  •  WEAPON</text>
      <text x="34" y="80" fill="white" font-size="34" font-weight="700" font-family="Inter,Segoe UI,Arial,sans-serif">Gravity Well</text><text x="34" y="120" fill="white" font-size="34" font-weight="700" font-family="Inter,Segoe UI,Arial,sans-serif">Gauntlet</text>
      <text x="34" y="134" fill="rgba(255,255,255,0.74)" font-size="20" font-family="Inter,Segoe UI,Arial,sans-serif">A gauntlet that manipulates local</text><text x="34" y="158" fill="rgba(255,255,255,0.74)" font-size="20" font-family="Inter,Segoe UI,Arial,sans-serif">gravity, causing subtle shifts in</text><text x="34" y="182" fill="rgba(255,255,255,0.74)" font-size="20" font-family="Inter,Segoe UI,Arial,sans-serif">weight and trajectory. Dark grey</text>
      <text x="790" y="42" text-anchor="end" fill="rgba(0,0,0,0.92)" font-size="26" font-family="Inter,Segoe UI,Arial,sans-serif" letter-spacing="2">LEGENDARY</text>
    </g>

    <g transform="translate(92 92)">
      <rect x="0" y="0" width="160" height="44" rx="22" fill="rgba(5,6,10,0.44)" stroke="rgba(79,79,79,0.35)" stroke-width="2"/>
      <text x="80" y="29" text-anchor="middle" fill="#000000" font-size="26" font-family="Inter,Segoe UI Symbol,Arial,sans-serif">✦  custom-addon-1009</text>
    </g>
  </g>
</svg>