<svg xmlns="http://www.w3.org/2000/svg" width="1024" height="1024" viewBox="0 0 1024 1024" role="img" aria-label="Echoing Void Orb">
  <defs>
    <linearGradient id="bgGradient" x1="0" y1="0" x2="1" y2="1">
      <stop offset="0%" stop-color="#0b0812"/>
      <stop offset="45%" stop-color="#050518"/>
      <stop offset="100%" stop-color="#0b0013"/>
    </linearGradient>
    <radialGradient id="nebula" cx="50%" cy="40%" r="70%">
      <stop offset="0%" stop-color="rgba(75,0,130,0.46)"/>
      <stop offset="55%" stop-color="rgba(25,25,112,0.18)"/>
      <stop offset="100%" stop-color="rgba(25,25,112,0)"/>
    </radialGradient>
    <linearGradient id="frame" x1="0" y1="0" x2="1" y2="1">
      <stop offset="0%" stop-color="rgba(197,108,240,0.85)"/>
      <stop offset="50%" stop-color="rgba(25,25,112,0.82)"/>
      <stop offset="100%" stop-color="rgba(128,0,128,0.85)"/>
    </linearGradient>
    <linearGradient id="iconFill" x1="0" y1="0" x2="1" y2="1">
      <stop offset="0%" stop-color="#595998"/>
      <stop offset="58%" stop-color="#4B0082"/>
      <stop offset="100%" stop-color="#800080"/>
    </linearGradient>
    <filter id="glowLarge" x="-40%" y="-40%" width="180%" height="180%">
      <feGaussianBlur stdDeviation="10" result="blur"/>
      <feMerge>
        <feMergeNode in="blur"/>
        <feMergeNode in="SourceGraphic"/>
      </feMerge>
    </filter>
    <filter id="softShadow" x="-20%" y="-20%" width="140%" height="140%">
      <feDropShadow dx="0" dy="18" stdDeviation="28" flood-color="rgba(25,25,112,0.55)"/>
    </filter>
    <clipPath id="cardClip">
      <rect x="36" y="36" width="952" height="952" rx="48"/>
    </clipPath>
  </defs>

  <rect width="1024" height="1024" fill="url(#bgGradient)"/>
  <g clip-path="url(#cardClip)">
    <rect x="36" y="36" width="952" height="952" rx="48" fill="url(#bgGradient)"/>
    <ellipse cx="512" cy="360" rx="430" ry="310" fill="url(#nebula)"/>
    <circle cx="413.5" cy="120.3" r="2.1" fill="white" opacity="0.51"/>
<circle cx="722.1" cy="392.2" r="3.3" fill="white" opacity="0.32"/>
<circle cx="486.3" cy="295.8" r="4.3" fill="white" opacity="0.47"/>
<circle cx="598.9" cy="174.5" r="2.2" fill="white" opacity="0.50"/>
<circle cx="563.1" cy="415.1" r="1.6" fill="white" opacity="0.79"/>
<circle cx="754.7" cy="453.3" r="3.9" fill="white" opacity="0.57"/>
<circle cx="264.4" cy="572.9" r="1.8" fill="white" opacity="0.85"/>
<circle cx="315.1" cy="672.6" r="4.9" fill="white" opacity="0.29"/>
<circle cx="668.6" cy="160.1" r="2.9" fill="white" opacity="0.38"/>
<circle cx="280.5" cy="438.2" r="4.5" fill="white" opacity="0.53"/>
<circle cx="183.0" cy="209.4" r="2.0" fill="white" opacity="0.30"/>
<circle cx="254.1" cy="225.2" r="3.4" fill="white" opacity="0.38"/>
    <g transform="translate(532.2 381.6) rotate(176.2)" opacity="0.23">
<path d="M0 -12.7 L3.1 -3.1 L12.7 0 L3.1 3.1 L0 12.7 L-3.1 3.1 L-12.7 0 L-3.1 -3.1 Z" fill="#800080"/>
</g>
<g transform="translate(363.6 538.3) rotate(46.9)" opacity="0.21">
<path d="M0 -12.9 L3.1 -3.1 L12.9 0 L3.1 3.1 L0 12.9 L-3.1 3.1 L-12.9 0 L-3.1 -3.1 Z" fill="#800080"/>
</g>
<g transform="translate(326.0 194.7) rotate(45.1)" opacity="0.36">
<path d="M0 -8.9 L2.1 -2.1 L8.9 0 L2.1 2.1 L0 8.9 L-2.1 2.1 L-8.9 0 L-2.1 -2.1 Z" fill="#800080"/>
</g>
<g transform="translate(432.1 215.6) rotate(93.3)" opacity="0.37">
<path d="M0 -14.6 L3.5 -3.5 L14.6 0 L3.5 3.5 L0 14.6 L-3.5 3.5 L-14.6 0 L-3.5 -3.5 Z" fill="#800080"/>
</g>
<g transform="translate(649.8 588.3) rotate(51.0)" opacity="0.46">
<path d="M0 -19.8 L4.7 -4.7 L19.8 0 L4.7 4.7 L0 19.8 L-4.7 4.7 L-19.8 0 L-4.7 -4.7 Z" fill="#800080"/>
</g>
<g transform="translate(440.4 189.6) rotate(122.2)" opacity="0.36">
<path d="M0 -8.6 L2.1 -2.1 L8.6 0 L2.1 2.1 L0 8.6 L-2.1 2.1 L-8.6 0 L-2.1 -2.1 Z" fill="#800080"/>
</g>
<g transform="translate(636.5 458.0) rotate(150.7)" opacity="0.30">
<path d="M0 -20.1 L4.8 -4.8 L20.1 0 L4.8 4.8 L0 20.1 L-4.8 4.8 L-20.1 0 L-4.8 -4.8 Z" fill="#800080"/>
</g>
<g transform="translate(717.8 451.2) rotate(58.5)" opacity="0.43">
<path d="M0 -10.2 L2.4 -2.4 L10.2 0 L2.4 2.4 L0 10.2 L-2.4 2.4 L-10.2 0 L-2.4 -2.4 Z" fill="#800080"/>
</g>
    <circle cx="512" cy="390" r="304" fill="none" stroke="rgba(25,25,112,0.16)" stroke-width="28"/>
    <circle cx="512" cy="390" r="280" fill="none" stroke="rgba(75,0,130,0.26)" stroke-width="5"/>
    
        <circle cx="350" cy="365" r="14" fill="#800080" opacity="0.45"/>
        <circle cx="695" cy="440" r="9" fill="#4B0082" opacity="0.42"/>
        <path d="M350 365 C420 250, 610 250, 695 440" fill="none" stroke="rgba(25,25,112,0.26)" stroke-width="4" stroke-dasharray="8 12"/>
        
    <g filter="url(#softShadow)">
      <circle cx="512" cy="392" r="226" fill="rgba(5,6,10,0.62)" stroke="rgba(197,108,240,0.22)" stroke-width="2"/>
      <circle cx="512" cy="392" r="178" fill="rgba(25,25,112,0.1)" stroke="rgba(128,0,128,0.24)" stroke-width="2"/>
      
    <g transform="translate(232 112) scale(5.6)">
      <path d="M 50 50 A 30 30 0 1 1 50 50 Z
        M 40 40 Q 50 30 60 40 Q 50 60 40 40 Z" fill="url(#iconFill)" stroke="#993399" stroke-width="1.6" stroke-linejoin="round" filter="url(#glowLarge)"/>
      <path d="M 50 50 A 30 30 0 1 1 50 50 Z
        M 40 40 Q 50 30 60 40 Q 50 60 40 40 Z" fill="none" stroke="white" stroke-width="0.55" opacity="0.38"/>
    </g>
    
    </g>

    <rect x="64" y="64" width="896" height="896" rx="34" fill="none" stroke="url(#frame)" stroke-width="3"/>

    <g transform="translate(92 760)">
      <rect x="0" y="0" width="840" height="172" rx="28" fill="rgba(5,6,10,0.45)" stroke="rgba(25,25,112,0.35)" stroke-width="2"/>
      <text x="34" y="42" fill="rgba(197,108,240,0.95)" font-size="22" font-family="Inter,Segoe UI,Arial,sans-serif" letter-spacing="3">1011  •  COMPANION</text>
      <text x="34" y="80" fill="white" font-size="34" font-weight="700" font-family="Inter,Segoe UI,Arial,sans-serif">Echoing Void Orb</text>
      <text x="34" y="134" fill="rgba(255,255,255,0.74)" font-size="20" font-family="Inter,Segoe UI,Arial,sans-serif">A small orb that absorbs ambient</text><text x="34" y="158" fill="rgba(255,255,255,0.74)" font-size="20" font-family="Inter,Segoe UI,Arial,sans-serif">sound and emits distorted, ghostly</text><text x="34" y="182" fill="rgba(255,255,255,0.74)" font-size="20" font-family="Inter,Segoe UI,Arial,sans-serif">echoes from forgotten places.</text>
      <text x="790" y="42" text-anchor="end" fill="rgba(128,0,128,0.92)" font-size="26" font-family="Inter,Segoe UI,Arial,sans-serif" letter-spacing="2">EPIC</text>
    </g>

    <g transform="translate(92 92)">
      <rect x="0" y="0" width="160" height="44" rx="22" fill="rgba(5,6,10,0.44)" stroke="rgba(25,25,112,0.35)" stroke-width="2"/>
      <text x="80" y="29" text-anchor="middle" fill="#800080" font-size="26" font-family="Inter,Segoe UI Symbol,Arial,sans-serif">◉  custom-addon-1011</text>
    </g>
  </g>
</svg>