<svg xmlns="http://www.w3.org/2000/svg" width="1024" height="1024" viewBox="0 0 1024 1024" role="img" aria-label="Reality Anchor Pin">
  <defs>
    <linearGradient id="bgGradient" x1="0" y1="0" x2="1" y2="1">
      <stop offset="0%" stop-color="#0d0e14"/>
      <stop offset="45%" stop-color="#382f00"/>
      <stop offset="100%" stop-color="#201804"/>
    </linearGradient>
    <radialGradient id="nebula" cx="50%" cy="40%" r="70%">
      <stop offset="0%" stop-color="rgba(218,165,32,0.46)"/>
      <stop offset="55%" stop-color="rgba(255,215,0,0.18)"/>
      <stop offset="100%" stop-color="rgba(255,215,0,0)"/>
    </radialGradient>
    <linearGradient id="frame" x1="0" y1="0" x2="1" y2="1">
      <stop offset="0%" stop-color="rgba(243,155,61,0.85)"/>
      <stop offset="50%" stop-color="rgba(255,215,0,0.82)"/>
      <stop offset="100%" stop-color="rgba(255,255,255,0.85)"/>
    </linearGradient>
    <linearGradient id="iconFill" x1="0" y1="0" x2="1" y2="1">
      <stop offset="0%" stop-color="#ffe247"/>
      <stop offset="58%" stop-color="#DAA520"/>
      <stop offset="100%" stop-color="#FFFFFF"/>
    </linearGradient>
    <filter id="glowLarge" x="-40%" y="-40%" width="180%" height="180%">
      <feGaussianBlur stdDeviation="10" result="blur"/>
      <feMerge>
        <feMergeNode in="blur"/>
        <feMergeNode in="SourceGraphic"/>
      </feMerge>
    </filter>
    <filter id="softShadow" x="-20%" y="-20%" width="140%" height="140%">
      <feDropShadow dx="0" dy="18" stdDeviation="28" flood-color="rgba(255,215,0,0.55)"/>
    </filter>
    <clipPath id="cardClip">
      <rect x="36" y="36" width="952" height="952" rx="48"/>
    </clipPath>
  </defs>

  <rect width="1024" height="1024" fill="url(#bgGradient)"/>
  <g clip-path="url(#cardClip)">
    <rect x="36" y="36" width="952" height="952" rx="48" fill="url(#bgGradient)"/>
    <ellipse cx="512" cy="360" rx="430" ry="310" fill="url(#nebula)"/>
    <circle cx="392.5" cy="195.6" r="2.2" fill="white" opacity="0.22"/>
<circle cx="331.7" cy="661.3" r="3.4" fill="white" opacity="0.34"/>
<circle cx="255.1" cy="374.2" r="2.9" fill="white" opacity="0.84"/>
<circle cx="495.0" cy="688.3" r="4.8" fill="white" opacity="0.54"/>
<circle cx="408.8" cy="209.7" r="3.6" fill="white" opacity="0.82"/>
<circle cx="556.6" cy="183.2" r="3.7" fill="white" opacity="0.58"/>
<circle cx="308.9" cy="580.9" r="5.0" fill="white" opacity="0.79"/>
<circle cx="847.4" cy="694.7" r="4.7" fill="white" opacity="0.56"/>
<circle cx="308.9" cy="432.2" r="2.8" fill="white" opacity="0.34"/>
<circle cx="831.1" cy="694.0" r="4.2" fill="white" opacity="0.75"/>
<circle cx="514.5" cy="673.8" r="3.6" fill="white" opacity="0.57"/>
<circle cx="792.4" cy="460.2" r="3.9" fill="white" opacity="0.43"/>
<circle cx="523.1" cy="367.5" r="1.8" fill="white" opacity="0.75"/>
<circle cx="602.6" cy="200.7" r="4.3" fill="white" opacity="0.69"/>
<circle cx="162.8" cy="571.1" r="4.7" fill="white" opacity="0.36"/>
<circle cx="659.3" cy="656.3" r="1.6" fill="white" opacity="0.83"/>
    <g transform="translate(399.6 360.1) rotate(179.5)" opacity="0.31">
<path d="M0 -16.5 L4.0 -4.0 L16.5 0 L4.0 4.0 L0 16.5 L-4.0 4.0 L-16.5 0 L-4.0 -4.0 Z" fill="#FFFFFF"/>
</g>
<g transform="translate(243.3 602.9) rotate(129.2)" opacity="0.51">
<path d="M0 -20.1 L4.8 -4.8 L20.1 0 L4.8 4.8 L0 20.1 L-4.8 4.8 L-20.1 0 L-4.8 -4.8 Z" fill="#FFFFFF"/>
</g>
<g transform="translate(245.7 141.9) rotate(33.2)" opacity="0.42">
<path d="M0 -17.9 L4.3 -4.3 L17.9 0 L4.3 4.3 L0 17.9 L-4.3 4.3 L-17.9 0 L-4.3 -4.3 Z" fill="#FFFFFF"/>
</g>
<g transform="translate(242.2 125.8) rotate(172.9)" opacity="0.43">
<path d="M0 -8.8 L2.1 -2.1 L8.8 0 L2.1 2.1 L0 8.8 L-2.1 2.1 L-8.8 0 L-2.1 -2.1 Z" fill="#FFFFFF"/>
</g>
<g transform="translate(615.5 606.1) rotate(138.7)" opacity="0.36">
<path d="M0 -19.2 L4.6 -4.6 L19.2 0 L4.6 4.6 L0 19.2 L-4.6 4.6 L-19.2 0 L-4.6 -4.6 Z" fill="#FFFFFF"/>
</g>
<g transform="translate(809.1 148.7) rotate(136.9)" opacity="0.37">
<path d="M0 -11.1 L2.7 -2.7 L11.1 0 L2.7 2.7 L0 11.1 L-2.7 2.7 L-11.1 0 L-2.7 -2.7 Z" fill="#FFFFFF"/>
</g>
<g transform="translate(625.0 466.1) rotate(96.6)" opacity="0.20">
<path d="M0 -19.4 L4.6 -4.6 L19.4 0 L4.6 4.6 L0 19.4 L-4.6 4.6 L-19.4 0 L-4.6 -4.6 Z" fill="#FFFFFF"/>
</g>
<g transform="translate(282.5 292.1) rotate(154.6)" opacity="0.25">
<path d="M0 -20.1 L4.8 -4.8 L20.1 0 L4.8 4.8 L0 20.1 L-4.8 4.8 L-20.1 0 L-4.8 -4.8 Z" fill="#FFFFFF"/>
</g>
<g transform="translate(213.5 525.2) rotate(11.1)" opacity="0.35">
<path d="M0 -19.6 L4.7 -4.7 L19.6 0 L4.7 4.7 L0 19.6 L-4.7 4.7 L-19.6 0 L-4.7 -4.7 Z" fill="#FFFFFF"/>
</g>
<g transform="translate(511.7 503.3) rotate(167.5)" opacity="0.30">
<path d="M0 -8.2 L2.0 -2.0 L8.2 0 L2.0 2.0 L0 8.2 L-2.0 2.0 L-8.2 0 L-2.0 -2.0 Z" fill="#FFFFFF"/>
</g>
    <circle cx="512" cy="390" r="304" fill="none" stroke="rgba(255,215,0,0.16)" stroke-width="28"/>
    <circle cx="512" cy="390" r="280" fill="none" stroke="rgba(218,165,32,0.26)" stroke-width="5"/>
    
        <circle cx="512" cy="390" r="290" fill="none" stroke="rgba(218,165,32,0.28)" stroke-width="5" stroke-dasharray="4 14"/>
        <circle cx="512" cy="390" r="250" fill="none" stroke="rgba(255,255,255,0.35)" stroke-width="2"/>
        
    <g filter="url(#softShadow)">
      <circle cx="512" cy="392" r="226" fill="rgba(5,6,10,0.62)" stroke="rgba(243,155,61,0.22)" stroke-width="2"/>
      <circle cx="512" cy="392" r="178" fill="rgba(255,215,0,0.1)" stroke="rgba(255,255,255,0.24)" stroke-width="2"/>
      
    <g transform="translate(232 112) scale(5.6)">
      <path d="M 50 20 L 60 40 L 40 40 Z
        M 50 40 L 60 60 L 40 60 Z
        M 50 60 L 60 80 L 40 80 Z" fill="url(#iconFill)" stroke="#ffffff" stroke-width="1.6" stroke-linejoin="round" filter="url(#glowLarge)"/>
      <path d="M 50 20 L 60 40 L 40 40 Z
        M 50 40 L 60 60 L 40 60 Z
        M 50 60 L 60 80 L 40 80 Z" fill="none" stroke="white" stroke-width="0.55" opacity="0.38"/>
    </g>
    
    </g>

    <rect x="64" y="64" width="896" height="896" rx="34" fill="none" stroke="url(#frame)" stroke-width="3"/>

    <g transform="translate(92 760)">
      <rect x="0" y="0" width="840" height="172" rx="28" fill="rgba(5,6,10,0.45)" stroke="rgba(255,215,0,0.35)" stroke-width="2"/>
      <text x="34" y="42" fill="rgba(243,155,61,0.95)" font-size="22" font-family="Inter,Segoe UI,Arial,sans-serif" letter-spacing="3">1012  •  ACCESSORY</text>
      <text x="34" y="80" fill="white" font-size="34" font-weight="700" font-family="Inter,Segoe UI,Arial,sans-serif">Reality Anchor Pin</text>
      <text x="34" y="134" fill="rgba(255,255,255,0.74)" font-size="20" font-family="Inter,Segoe UI,Arial,sans-serif">A small, unassuming pin that</text><text x="34" y="158" fill="rgba(255,255,255,0.74)" font-size="20" font-family="Inter,Segoe UI,Arial,sans-serif">subtly reinforces presence in</text><text x="34" y="182" fill="rgba(255,255,255,0.74)" font-size="20" font-family="Inter,Segoe UI,Arial,sans-serif">reality, making the wearer immune</text>
      <text x="790" y="42" text-anchor="end" fill="rgba(255,255,255,0.92)" font-size="26" font-family="Inter,Segoe UI,Arial,sans-serif" letter-spacing="2">LEGENDARY</text>
    </g>

    <g transform="translate(92 92)">
      <rect x="0" y="0" width="160" height="44" rx="22" fill="rgba(5,6,10,0.44)" stroke="rgba(255,215,0,0.35)" stroke-width="2"/>
      <text x="80" y="29" text-anchor="middle" fill="#FFFFFF" font-size="26" font-family="Inter,Segoe UI Symbol,Arial,sans-serif">◈  custom-addon-1012</text>
    </g>
  </g>
</svg>