<svg xmlns="http://www.w3.org/2000/svg" width="1024" height="1024" viewBox="0 0 1024 1024" role="img" aria-label="Illusionist&#x27;s Veil">
  <defs>
    <linearGradient id="bgGradient" x1="0" y1="0" x2="1" y2="1">
      <stop offset="0%" stop-color="#0b0812"/>
      <stop offset="45%" stop-color="#1c001c"/>
      <stop offset="100%" stop-color="#260026"/>
    </linearGradient>
    <radialGradient id="nebula" cx="50%" cy="40%" r="70%">
      <stop offset="0%" stop-color="rgba(255,0,255,0.46)"/>
      <stop offset="55%" stop-color="rgba(128,0,128,0.18)"/>
      <stop offset="100%" stop-color="rgba(128,0,128,0)"/>
    </radialGradient>
    <linearGradient id="frame" x1="0" y1="0" x2="1" y2="1">
      <stop offset="0%" stop-color="rgba(197,108,240,0.85)"/>
      <stop offset="50%" stop-color="rgba(128,0,128,0.82)"/>
      <stop offset="100%" stop-color="rgba(255,255,0,0.85)"/>
    </linearGradient>
    <linearGradient id="iconFill" x1="0" y1="0" x2="1" y2="1">
      <stop offset="0%" stop-color="#a347a3"/>
      <stop offset="58%" stop-color="#FF00FF"/>
      <stop offset="100%" stop-color="#FFFF00"/>
    </linearGradient>
    <filter id="glowLarge" x="-40%" y="-40%" width="180%" height="180%">
      <feGaussianBlur stdDeviation="10" result="blur"/>
      <feMerge>
        <feMergeNode in="blur"/>
        <feMergeNode in="SourceGraphic"/>
      </feMerge>
    </filter>
    <filter id="softShadow" x="-20%" y="-20%" width="140%" height="140%">
      <feDropShadow dx="0" dy="18" stdDeviation="28" flood-color="rgba(128,0,128,0.55)"/>
    </filter>
    <clipPath id="cardClip">
      <rect x="36" y="36" width="952" height="952" rx="48"/>
    </clipPath>
  </defs>

  <rect width="1024" height="1024" fill="url(#bgGradient)"/>
  <g clip-path="url(#cardClip)">
    <rect x="36" y="36" width="952" height="952" rx="48" fill="url(#bgGradient)"/>
    <ellipse cx="512" cy="360" rx="430" ry="310" fill="url(#nebula)"/>
    <circle cx="412.0" cy="357.7" r="2.7" fill="white" opacity="0.59"/>
<circle cx="618.0" cy="531.5" r="2.7" fill="white" opacity="0.54"/>
<circle cx="488.7" cy="699.3" r="3.2" fill="white" opacity="0.56"/>
<circle cx="593.3" cy="480.3" r="2.1" fill="white" opacity="0.61"/>
<circle cx="382.6" cy="338.6" r="4.6" fill="white" opacity="0.43"/>
<circle cx="358.3" cy="505.9" r="4.3" fill="white" opacity="0.72"/>
<circle cx="619.0" cy="221.1" r="2.3" fill="white" opacity="0.61"/>
<circle cx="397.7" cy="604.7" r="2.0" fill="white" opacity="0.44"/>
<circle cx="742.6" cy="348.5" r="4.5" fill="white" opacity="0.58"/>
<circle cx="766.7" cy="485.5" r="4.2" fill="white" opacity="0.34"/>
<circle cx="569.4" cy="160.5" r="1.8" fill="white" opacity="0.86"/>
<circle cx="430.8" cy="441.6" r="3.0" fill="white" opacity="0.31"/>
    <g transform="translate(415.5 430.2) rotate(67.4)" opacity="0.24">
<path d="M0 -18.0 L4.3 -4.3 L18.0 0 L4.3 4.3 L0 18.0 L-4.3 4.3 L-18.0 0 L-4.3 -4.3 Z" fill="#FFFF00"/>
</g>
<g transform="translate(619.1 373.7) rotate(94.8)" opacity="0.25">
<path d="M0 -16.2 L3.9 -3.9 L16.2 0 L3.9 3.9 L0 16.2 L-3.9 3.9 L-16.2 0 L-3.9 -3.9 Z" fill="#FFFF00"/>
</g>
<g transform="translate(264.2 410.6) rotate(156.5)" opacity="0.31">
<path d="M0 -11.4 L2.7 -2.7 L11.4 0 L2.7 2.7 L0 11.4 L-2.7 2.7 L-11.4 0 L-2.7 -2.7 Z" fill="#FFFF00"/>
</g>
<g transform="translate(669.9 414.5) rotate(45.7)" opacity="0.53">
<path d="M0 -21.0 L5.0 -5.0 L21.0 0 L5.0 5.0 L0 21.0 L-5.0 5.0 L-21.0 0 L-5.0 -5.0 Z" fill="#FFFF00"/>
</g>
<g transform="translate(354.1 558.0) rotate(95.8)" opacity="0.41">
<path d="M0 -11.9 L2.8 -2.8 L11.9 0 L2.8 2.8 L0 11.9 L-2.8 2.8 L-11.9 0 L-2.8 -2.8 Z" fill="#FFFF00"/>
</g>
<g transform="translate(530.3 260.4) rotate(158.5)" opacity="0.24">
<path d="M0 -14.0 L3.4 -3.4 L14.0 0 L3.4 3.4 L0 14.0 L-3.4 3.4 L-14.0 0 L-3.4 -3.4 Z" fill="#FFFF00"/>
</g>
<g transform="translate(410.4 193.1) rotate(61.7)" opacity="0.31">
<path d="M0 -19.2 L4.6 -4.6 L19.2 0 L4.6 4.6 L0 19.2 L-4.6 4.6 L-19.2 0 L-4.6 -4.6 Z" fill="#FFFF00"/>
</g>
<g transform="translate(778.0 387.3) rotate(144.7)" opacity="0.45">
<path d="M0 -16.1 L3.9 -3.9 L16.1 0 L3.9 3.9 L0 16.1 L-3.9 3.9 L-16.1 0 L-3.9 -3.9 Z" fill="#FFFF00"/>
</g>
    <circle cx="512" cy="390" r="304" fill="none" stroke="rgba(128,0,128,0.16)" stroke-width="28"/>
    <circle cx="512" cy="390" r="280" fill="none" stroke="rgba(255,0,255,0.26)" stroke-width="5"/>
    
        <path d="M280 290 Q512 170 744 290" fill="none" stroke="rgba(255,0,255,0.32)" stroke-width="8"/>
        <circle cx="362" cy="255" r="10" fill="#FFFF00" opacity="0.55"/>
        <circle cx="512" cy="220" r="12" fill="#FFFF00" opacity="0.72"/>
        <circle cx="662" cy="255" r="10" fill="#FFFF00" opacity="0.55"/>
        
    <g filter="url(#softShadow)">
      <circle cx="512" cy="392" r="226" fill="rgba(5,6,10,0.62)" stroke="rgba(197,108,240,0.22)" stroke-width="2"/>
      <circle cx="512" cy="392" r="178" fill="rgba(128,0,128,0.1)" stroke="rgba(255,255,0,0.24)" stroke-width="2"/>
      
    <g transform="translate(232 112) scale(5.6)">
      <path d="M 10 50 Q 30 20 50 50 Q 70 80 90 50 Q 70 20 50 50 Q 30 80 10 50 Z" fill="url(#iconFill)" stroke="#ffff33" stroke-width="1.6" stroke-linejoin="round" filter="url(#glowLarge)"/>
      <path d="M 10 50 Q 30 20 50 50 Q 70 80 90 50 Q 70 20 50 50 Q 30 80 10 50 Z" fill="none" stroke="white" stroke-width="0.55" opacity="0.38"/>
    </g>
    
    </g>

    <rect x="64" y="64" width="896" height="896" rx="34" fill="none" stroke="url(#frame)" stroke-width="3"/>

    <g transform="translate(92 760)">
      <rect x="0" y="0" width="840" height="172" rx="28" fill="rgba(5,6,10,0.45)" stroke="rgba(128,0,128,0.35)" stroke-width="2"/>
      <text x="34" y="42" fill="rgba(197,108,240,0.95)" font-size="22" font-family="Inter,Segoe UI,Arial,sans-serif" letter-spacing="3">1016  •  HEADWEAR</text>
      <text x="34" y="80" fill="white" font-size="34" font-weight="700" font-family="Inter,Segoe UI,Arial,sans-serif">Illusionist&#x27;s Veil</text>
      <text x="34" y="134" fill="rgba(255,255,255,0.74)" font-size="20" font-family="Inter,Segoe UI,Arial,sans-serif">A veil that distorts perception,</text><text x="34" y="158" fill="rgba(255,255,255,0.74)" font-size="20" font-family="Inter,Segoe UI,Arial,sans-serif">making the wearer appear as a</text><text x="34" y="182" fill="rgba(255,255,255,0.74)" font-size="20" font-family="Inter,Segoe UI,Arial,sans-serif">constantly shifting, indistinct</text>
      <text x="790" y="42" text-anchor="end" fill="rgba(255,255,0,0.92)" font-size="26" font-family="Inter,Segoe UI,Arial,sans-serif" letter-spacing="2">EPIC</text>
    </g>

    <g transform="translate(92 92)">
      <rect x="0" y="0" width="160" height="44" rx="22" fill="rgba(5,6,10,0.44)" stroke="rgba(128,0,128,0.35)" stroke-width="2"/>
      <text x="80" y="29" text-anchor="middle" fill="#FFFF00" font-size="26" font-family="Inter,Segoe UI Symbol,Arial,sans-serif">⌁  custom-addon-1016</text>
    </g>
  </g>
</svg>