<svg xmlns="http://www.w3.org/2000/svg" width="1024" height="1024" viewBox="0 0 1024 1024" role="img" aria-label="Void Step Boots">
  <defs>
    <linearGradient id="bgGradient" x1="0" y1="0" x2="1" y2="1">
      <stop offset="0%" stop-color="#080915"/>
      <stop offset="45%" stop-color="#0a1111"/>
      <stop offset="100%" stop-color="#0f0f0f"/>
    </linearGradient>
    <radialGradient id="nebula" cx="50%" cy="40%" r="70%">
      <stop offset="0%" stop-color="rgba(105,105,105,0.46)"/>
      <stop offset="55%" stop-color="rgba(47,79,79,0.18)"/>
      <stop offset="100%" stop-color="rgba(47,79,79,0)"/>
    </radialGradient>
    <linearGradient id="frame" x1="0" y1="0" x2="1" y2="1">
      <stop offset="0%" stop-color="rgba(246,216,107,0.85)"/>
      <stop offset="50%" stop-color="rgba(47,79,79,0.82)"/>
      <stop offset="100%" stop-color="rgba(0,0,0,0.85)"/>
    </linearGradient>
    <linearGradient id="iconFill" x1="0" y1="0" x2="1" y2="1">
      <stop offset="0%" stop-color="#698080"/>
      <stop offset="58%" stop-color="#696969"/>
      <stop offset="100%" stop-color="#000000"/>
    </linearGradient>
    <filter id="glowLarge" x="-40%" y="-40%" width="180%" height="180%">
      <feGaussianBlur stdDeviation="10" result="blur"/>
      <feMerge>
        <feMergeNode in="blur"/>
        <feMergeNode in="SourceGraphic"/>
      </feMerge>
    </filter>
    <filter id="softShadow" x="-20%" y="-20%" width="140%" height="140%">
      <feDropShadow dx="0" dy="18" stdDeviation="28" flood-color="rgba(47,79,79,0.55)"/>
    </filter>
    <clipPath id="cardClip">
      <rect x="36" y="36" width="952" height="952" rx="48"/>
    </clipPath>
  </defs>

  <rect width="1024" height="1024" fill="url(#bgGradient)"/>
  <g clip-path="url(#cardClip)">
    <rect x="36" y="36" width="952" height="952" rx="48" fill="url(#bgGradient)"/>
    <ellipse cx="512" cy="360" rx="430" ry="310" fill="url(#nebula)"/>
    <circle cx="167.4" cy="241.4" r="4.2" fill="white" opacity="0.51"/>
<circle cx="871.6" cy="754.9" r="2.3" fill="white" opacity="0.75"/>
<circle cx="360.1" cy="348.4" r="2.5" fill="white" opacity="0.36"/>
<circle cx="219.1" cy="530.8" r="2.9" fill="white" opacity="0.33"/>
<circle cx="471.0" cy="634.3" r="3.8" fill="white" opacity="0.53"/>
<circle cx="760.5" cy="426.1" r="3.6" fill="white" opacity="0.33"/>
<circle cx="532.4" cy="363.3" r="3.2" fill="white" opacity="0.51"/>
<circle cx="797.1" cy="167.3" r="2.5" fill="white" opacity="0.27"/>
<circle cx="424.8" cy="646.7" r="3.3" fill="white" opacity="0.68"/>
<circle cx="220.8" cy="594.1" r="2.1" fill="white" opacity="0.49"/>
<circle cx="355.5" cy="406.9" r="3.0" fill="white" opacity="0.60"/>
<circle cx="771.5" cy="430.8" r="1.9" fill="white" opacity="0.78"/>
<circle cx="716.8" cy="198.7" r="3.2" fill="white" opacity="0.24"/>
<circle cx="805.7" cy="517.4" r="3.0" fill="white" opacity="0.23"/>
<circle cx="685.8" cy="672.2" r="4.9" fill="white" opacity="0.44"/>
<circle cx="601.0" cy="545.5" r="3.2" fill="white" opacity="0.86"/>
<circle cx="739.8" cy="533.9" r="3.0" fill="white" opacity="0.37"/>
<circle cx="867.7" cy="265.1" r="4.2" fill="white" opacity="0.54"/>
<circle cx="831.0" cy="471.4" r="3.6" fill="white" opacity="0.38"/>
<circle cx="494.1" cy="560.0" r="3.8" fill="white" opacity="0.34"/>
<circle cx="577.7" cy="732.5" r="3.2" fill="white" opacity="0.88"/>
<circle cx="227.6" cy="640.1" r="2.5" fill="white" opacity="0.72"/>
<circle cx="354.2" cy="346.7" r="2.0" fill="white" opacity="0.45"/>
<circle cx="366.1" cy="679.5" r="2.9" fill="white" opacity="0.89"/>
    <g transform="translate(591.8 600.7) rotate(85.8)" opacity="0.21">
<path d="M0 -9.7 L2.3 -2.3 L9.7 0 L2.3 2.3 L0 9.7 L-2.3 2.3 L-9.7 0 L-2.3 -2.3 Z" fill="#000000"/>
</g>
<g transform="translate(374.0 331.8) rotate(90.5)" opacity="0.51">
<path d="M0 -10.2 L2.4 -2.4 L10.2 0 L2.4 2.4 L0 10.2 L-2.4 2.4 L-10.2 0 L-2.4 -2.4 Z" fill="#000000"/>
</g>
<g transform="translate(623.1 166.5) rotate(79.2)" opacity="0.21">
<path d="M0 -21.4 L5.1 -5.1 L21.4 0 L5.1 5.1 L0 21.4 L-5.1 5.1 L-21.4 0 L-5.1 -5.1 Z" fill="#000000"/>
</g>
<g transform="translate(274.0 461.2) rotate(97.4)" opacity="0.42">
<path d="M0 -8.6 L2.1 -2.1 L8.6 0 L2.1 2.1 L0 8.6 L-2.1 2.1 L-8.6 0 L-2.1 -2.1 Z" fill="#000000"/>
</g>
<g transform="translate(403.9 545.4) rotate(173.9)" opacity="0.27">
<path d="M0 -18.0 L4.3 -4.3 L18.0 0 L4.3 4.3 L0 18.0 L-4.3 4.3 L-18.0 0 L-4.3 -4.3 Z" fill="#000000"/>
</g>
<g transform="translate(677.5 593.7) rotate(30.5)" opacity="0.32">
<path d="M0 -10.9 L2.6 -2.6 L10.9 0 L2.6 2.6 L0 10.9 L-2.6 2.6 L-10.9 0 L-2.6 -2.6 Z" fill="#000000"/>
</g>
<g transform="translate(617.1 511.8) rotate(168.6)" opacity="0.36">
<path d="M0 -21.3 L5.1 -5.1 L21.3 0 L5.1 5.1 L0 21.3 L-5.1 5.1 L-21.3 0 L-5.1 -5.1 Z" fill="#000000"/>
</g>
<g transform="translate(481.2 619.5) rotate(123.5)" opacity="0.53">
<path d="M0 -13.6 L3.3 -3.3 L13.6 0 L3.3 3.3 L0 13.6 L-3.3 3.3 L-13.6 0 L-3.3 -3.3 Z" fill="#000000"/>
</g>
<g transform="translate(564.9 411.8) rotate(53.6)" opacity="0.27">
<path d="M0 -15.5 L3.7 -3.7 L15.5 0 L3.7 3.7 L0 15.5 L-3.7 3.7 L-15.5 0 L-3.7 -3.7 Z" fill="#000000"/>
</g>
<g transform="translate(348.1 493.0) rotate(127.1)" opacity="0.33">
<path d="M0 -13.2 L3.2 -3.2 L13.2 0 L3.2 3.2 L0 13.2 L-3.2 3.2 L-13.2 0 L-3.2 -3.2 Z" fill="#000000"/>
</g>
<g transform="translate(645.7 200.7) rotate(72.6)" opacity="0.39">
<path d="M0 -10.6 L2.5 -2.5 L10.6 0 L2.5 2.5 L0 10.6 L-2.5 2.5 L-10.6 0 L-2.5 -2.5 Z" fill="#000000"/>
</g>
<g transform="translate(215.2 248.1) rotate(29.1)" opacity="0.35">
<path d="M0 -13.4 L3.2 -3.2 L13.4 0 L3.2 3.2 L0 13.4 L-3.2 3.2 L-13.4 0 L-3.2 -3.2 Z" fill="#000000"/>
</g>
<g transform="translate(756.1 572.7) rotate(157.1)" opacity="0.22">
<path d="M0 -18.7 L4.5 -4.5 L18.7 0 L4.5 4.5 L0 18.7 L-4.5 4.5 L-18.7 0 L-4.5 -4.5 Z" fill="#000000"/>
</g>
<g transform="translate(666.8 542.4) rotate(42.0)" opacity="0.45">
<path d="M0 -15.9 L3.8 -3.8 L15.9 0 L3.8 3.8 L0 15.9 L-3.8 3.8 L-15.9 0 L-3.8 -3.8 Z" fill="#000000"/>
</g>
    <circle cx="512" cy="390" r="304" fill="none" stroke="rgba(47,79,79,0.16)" stroke-width="28"/>
    <circle cx="512" cy="390" r="280" fill="none" stroke="rgba(105,105,105,0.26)" stroke-width="5"/>
    
        <circle cx="512" cy="390" r="290" fill="none" stroke="rgba(105,105,105,0.28)" stroke-width="5" stroke-dasharray="4 14"/>
        <circle cx="512" cy="390" r="250" fill="none" stroke="rgba(0,0,0,0.35)" stroke-width="2"/>
        
    <g filter="url(#softShadow)">
      <circle cx="512" cy="392" r="226" fill="rgba(5,6,10,0.62)" stroke="rgba(246,216,107,0.22)" stroke-width="2"/>
      <circle cx="512" cy="392" r="178" fill="rgba(47,79,79,0.1)" stroke="rgba(0,0,0,0.24)" stroke-width="2"/>
      
    <g transform="translate(232 112) scale(5.6)">
      <path d="M 30 70 L 20 60 L 20 80 L 30 90 L 70 90 L 80 80 L 80 60 L 70 70 Z" fill="url(#iconFill)" stroke="#333333" stroke-width="1.6" stroke-linejoin="round" filter="url(#glowLarge)"/>
      <path d="M 30 70 L 20 60 L 20 80 L 30 90 L 70 90 L 80 80 L 80 60 L 70 70 Z" fill="none" stroke="white" stroke-width="0.55" opacity="0.38"/>
    </g>
    
    </g>

    <rect x="64" y="64" width="896" height="896" rx="34" fill="none" stroke="url(#frame)" stroke-width="3"/>

    <g transform="translate(92 760)">
      <rect x="0" y="0" width="840" height="172" rx="28" fill="rgba(5,6,10,0.45)" stroke="rgba(47,79,79,0.35)" stroke-width="2"/>
      <text x="34" y="42" fill="rgba(246,216,107,0.95)" font-size="22" font-family="Inter,Segoe UI,Arial,sans-serif" letter-spacing="3">1019  •  ACCESSORY</text>
      <text x="34" y="80" fill="white" font-size="34" font-weight="700" font-family="Inter,Segoe UI,Arial,sans-serif">Void Step Boots</text>
      <text x="34" y="134" fill="rgba(255,255,255,0.74)" font-size="20" font-family="Inter,Segoe UI,Arial,sans-serif">Boots that allow brief steps into</text><text x="34" y="158" fill="rgba(255,255,255,0.74)" font-size="20" font-family="Inter,Segoe UI,Arial,sans-serif">a pocket dimension, appearing to</text><text x="34" y="182" fill="rgba(255,255,255,0.74)" font-size="20" font-family="Inter,Segoe UI,Arial,sans-serif">teleport short distances. Dark</text>
      <text x="790" y="42" text-anchor="end" fill="rgba(0,0,0,0.92)" font-size="26" font-family="Inter,Segoe UI,Arial,sans-serif" letter-spacing="2">MYTHIC</text>
    </g>

    <g transform="translate(92 92)">
      <rect x="0" y="0" width="160" height="44" rx="22" fill="rgba(5,6,10,0.44)" stroke="rgba(47,79,79,0.35)" stroke-width="2"/>
      <text x="80" y="29" text-anchor="middle" fill="#000000" font-size="26" font-family="Inter,Segoe UI Symbol,Arial,sans-serif">◈  custom-addon-1019</text>
    </g>
  </g>
</svg>