<svg xmlns="http://www.w3.org/2000/svg" width="1024" height="1024" viewBox="0 0 1024 1024" role="img" aria-label="Reality Bending Ring">
  <defs>
    <linearGradient id="bgGradient" x1="0" y1="0" x2="1" y2="1">
      <stop offset="0%" stop-color="#080915"/>
      <stop offset="45%" stop-color="#381e00"/>
      <stop offset="100%" stop-color="#261800"/>
    </linearGradient>
    <radialGradient id="nebula" cx="50%" cy="40%" r="70%">
      <stop offset="0%" stop-color="rgba(255,165,0,0.46)"/>
      <stop offset="55%" stop-color="rgba(255,140,0,0.18)"/>
      <stop offset="100%" stop-color="rgba(255,140,0,0)"/>
    </radialGradient>
    <linearGradient id="frame" x1="0" y1="0" x2="1" y2="1">
      <stop offset="0%" stop-color="rgba(246,216,107,0.85)"/>
      <stop offset="50%" stop-color="rgba(255,140,0,0.82)"/>
      <stop offset="100%" stop-color="rgba(255,255,255,0.85)"/>
    </linearGradient>
    <linearGradient id="iconFill" x1="0" y1="0" x2="1" y2="1">
      <stop offset="0%" stop-color="#ffac47"/>
      <stop offset="58%" stop-color="#FFA500"/>
      <stop offset="100%" stop-color="#FFFFFF"/>
    </linearGradient>
    <filter id="glowLarge" x="-40%" y="-40%" width="180%" height="180%">
      <feGaussianBlur stdDeviation="10" result="blur"/>
      <feMerge>
        <feMergeNode in="blur"/>
        <feMergeNode in="SourceGraphic"/>
      </feMerge>
    </filter>
    <filter id="softShadow" x="-20%" y="-20%" width="140%" height="140%">
      <feDropShadow dx="0" dy="18" stdDeviation="28" flood-color="rgba(255,140,0,0.55)"/>
    </filter>
    <clipPath id="cardClip">
      <rect x="36" y="36" width="952" height="952" rx="48"/>
    </clipPath>
  </defs>

  <rect width="1024" height="1024" fill="url(#bgGradient)"/>
  <g clip-path="url(#cardClip)">
    <rect x="36" y="36" width="952" height="952" rx="48" fill="url(#bgGradient)"/>
    <ellipse cx="512" cy="360" rx="430" ry="310" fill="url(#nebula)"/>
    <circle cx="225.4" cy="405.0" r="2.9" fill="white" opacity="0.33"/>
<circle cx="719.5" cy="496.8" r="2.8" fill="white" opacity="0.56"/>
<circle cx="346.1" cy="302.6" r="2.9" fill="white" opacity="0.51"/>
<circle cx="175.5" cy="591.4" r="2.1" fill="white" opacity="0.61"/>
<circle cx="234.3" cy="201.2" r="4.2" fill="white" opacity="0.57"/>
<circle cx="605.7" cy="100.0" r="2.9" fill="white" opacity="0.32"/>
<circle cx="223.8" cy="685.7" r="4.3" fill="white" opacity="0.84"/>
<circle cx="313.5" cy="345.9" r="4.6" fill="white" opacity="0.58"/>
<circle cx="285.4" cy="158.8" r="3.3" fill="white" opacity="0.62"/>
<circle cx="274.5" cy="752.1" r="4.8" fill="white" opacity="0.83"/>
<circle cx="339.6" cy="372.9" r="4.2" fill="white" opacity="0.31"/>
<circle cx="363.6" cy="173.6" r="2.7" fill="white" opacity="0.43"/>
<circle cx="224.1" cy="174.4" r="4.9" fill="white" opacity="0.59"/>
<circle cx="262.3" cy="316.8" r="3.6" fill="white" opacity="0.83"/>
<circle cx="693.3" cy="623.3" r="3.3" fill="white" opacity="0.74"/>
<circle cx="526.2" cy="532.1" r="3.1" fill="white" opacity="0.81"/>
<circle cx="516.8" cy="115.1" r="3.2" fill="white" opacity="0.88"/>
<circle cx="759.3" cy="692.2" r="2.8" fill="white" opacity="0.51"/>
<circle cx="250.7" cy="420.9" r="2.9" fill="white" opacity="0.62"/>
<circle cx="307.3" cy="587.2" r="4.6" fill="white" opacity="0.38"/>
<circle cx="537.8" cy="368.2" r="4.1" fill="white" opacity="0.84"/>
<circle cx="341.3" cy="421.2" r="1.7" fill="white" opacity="0.21"/>
<circle cx="338.3" cy="636.9" r="2.2" fill="white" opacity="0.61"/>
<circle cx="452.3" cy="566.3" r="3.2" fill="white" opacity="0.21"/>
    <g transform="translate(527.7 131.5) rotate(111.0)" opacity="0.36">
<path d="M0 -20.2 L4.9 -4.9 L20.2 0 L4.9 4.9 L0 20.2 L-4.9 4.9 L-20.2 0 L-4.9 -4.9 Z" fill="#FFFFFF"/>
</g>
<g transform="translate(540.1 299.8) rotate(137.9)" opacity="0.26">
<path d="M0 -15.7 L3.8 -3.8 L15.7 0 L3.8 3.8 L0 15.7 L-3.8 3.8 L-15.7 0 L-3.8 -3.8 Z" fill="#FFFFFF"/>
</g>
<g transform="translate(499.4 253.9) rotate(35.6)" opacity="0.23">
<path d="M0 -14.8 L3.6 -3.6 L14.8 0 L3.6 3.6 L0 14.8 L-3.6 3.6 L-14.8 0 L-3.6 -3.6 Z" fill="#FFFFFF"/>
</g>
<g transform="translate(284.2 179.8) rotate(131.9)" opacity="0.33">
<path d="M0 -18.8 L4.5 -4.5 L18.8 0 L4.5 4.5 L0 18.8 L-4.5 4.5 L-18.8 0 L-4.5 -4.5 Z" fill="#FFFFFF"/>
</g>
<g transform="translate(357.7 450.5) rotate(61.0)" opacity="0.50">
<path d="M0 -10.2 L2.4 -2.4 L10.2 0 L2.4 2.4 L0 10.2 L-2.4 2.4 L-10.2 0 L-2.4 -2.4 Z" fill="#FFFFFF"/>
</g>
<g transform="translate(474.8 327.1) rotate(71.9)" opacity="0.22">
<path d="M0 -18.4 L4.4 -4.4 L18.4 0 L4.4 4.4 L0 18.4 L-4.4 4.4 L-18.4 0 L-4.4 -4.4 Z" fill="#FFFFFF"/>
</g>
<g transform="translate(787.5 135.7) rotate(38.7)" opacity="0.28">
<path d="M0 -15.6 L3.7 -3.7 L15.6 0 L3.7 3.7 L0 15.6 L-3.7 3.7 L-15.6 0 L-3.7 -3.7 Z" fill="#FFFFFF"/>
</g>
<g transform="translate(280.8 305.3) rotate(164.4)" opacity="0.21">
<path d="M0 -14.3 L3.4 -3.4 L14.3 0 L3.4 3.4 L0 14.3 L-3.4 3.4 L-14.3 0 L-3.4 -3.4 Z" fill="#FFFFFF"/>
</g>
<g transform="translate(485.0 382.5) rotate(148.7)" opacity="0.33">
<path d="M0 -19.6 L4.7 -4.7 L19.6 0 L4.7 4.7 L0 19.6 L-4.7 4.7 L-19.6 0 L-4.7 -4.7 Z" fill="#FFFFFF"/>
</g>
<g transform="translate(534.7 385.3) rotate(57.3)" opacity="0.48">
<path d="M0 -19.5 L4.7 -4.7 L19.5 0 L4.7 4.7 L0 19.5 L-4.7 4.7 L-19.5 0 L-4.7 -4.7 Z" fill="#FFFFFF"/>
</g>
<g transform="translate(747.0 253.2) rotate(157.1)" opacity="0.29">
<path d="M0 -12.5 L3.0 -3.0 L12.5 0 L3.0 3.0 L0 12.5 L-3.0 3.0 L-12.5 0 L-3.0 -3.0 Z" fill="#FFFFFF"/>
</g>
<g transform="translate(386.8 259.2) rotate(8.5)" opacity="0.28">
<path d="M0 -19.3 L4.6 -4.6 L19.3 0 L4.6 4.6 L0 19.3 L-4.6 4.6 L-19.3 0 L-4.6 -4.6 Z" fill="#FFFFFF"/>
</g>
<g transform="translate(665.0 542.4) rotate(126.7)" opacity="0.24">
<path d="M0 -12.2 L2.9 -2.9 L12.2 0 L2.9 2.9 L0 12.2 L-2.9 2.9 L-12.2 0 L-2.9 -2.9 Z" fill="#FFFFFF"/>
</g>
<g transform="translate(596.0 125.7) rotate(56.1)" opacity="0.41">
<path d="M0 -17.3 L4.2 -4.2 L17.3 0 L4.2 4.2 L0 17.3 L-4.2 4.2 L-17.3 0 L-4.2 -4.2 Z" fill="#FFFFFF"/>
</g>
    <circle cx="512" cy="390" r="304" fill="none" stroke="rgba(255,140,0,0.16)" stroke-width="28"/>
    <circle cx="512" cy="390" r="280" fill="none" stroke="rgba(255,165,0,0.26)" stroke-width="5"/>
    
        <circle cx="512" cy="390" r="290" fill="none" stroke="rgba(255,165,0,0.28)" stroke-width="5" stroke-dasharray="4 14"/>
        <circle cx="512" cy="390" r="250" fill="none" stroke="rgba(255,255,255,0.35)" stroke-width="2"/>
        
    <g filter="url(#softShadow)">
      <circle cx="512" cy="392" r="226" fill="rgba(5,6,10,0.62)" stroke="rgba(246,216,107,0.22)" stroke-width="2"/>
      <circle cx="512" cy="392" r="178" fill="rgba(255,140,0,0.1)" stroke="rgba(255,255,255,0.24)" stroke-width="2"/>
      
    <g transform="translate(232 112) scale(5.6)">
      <path d="M 50 50 A 20 20 0 1 1 50 50 Z
        M 45 45 L 55 45 L 55 55 L 45 55 Z" fill="url(#iconFill)" stroke="#ffffff" stroke-width="1.6" stroke-linejoin="round" filter="url(#glowLarge)"/>
      <path d="M 50 50 A 20 20 0 1 1 50 50 Z
        M 45 45 L 55 45 L 55 55 L 45 55 Z" fill="none" stroke="white" stroke-width="0.55" opacity="0.38"/>
    </g>
    
    </g>

    <rect x="64" y="64" width="896" height="896" rx="34" fill="none" stroke="url(#frame)" stroke-width="3"/>

    <g transform="translate(92 760)">
      <rect x="0" y="0" width="840" height="172" rx="28" fill="rgba(5,6,10,0.45)" stroke="rgba(255,140,0,0.35)" stroke-width="2"/>
      <text x="34" y="42" fill="rgba(246,216,107,0.95)" font-size="22" font-family="Inter,Segoe UI,Arial,sans-serif" letter-spacing="3">1020  •  ACCESSORY</text>
      <text x="34" y="80" fill="white" font-size="34" font-weight="700" font-family="Inter,Segoe UI,Arial,sans-serif">Reality Bending</text><text x="34" y="120" fill="white" font-size="34" font-weight="700" font-family="Inter,Segoe UI,Arial,sans-serif">Ring</text>
      <text x="34" y="134" fill="rgba(255,255,255,0.74)" font-size="20" font-family="Inter,Segoe UI,Arial,sans-serif">A ring that subtly warps local</text><text x="34" y="158" fill="rgba(255,255,255,0.74)" font-size="20" font-family="Inter,Segoe UI,Arial,sans-serif">reality, causing minor visual</text><text x="34" y="182" fill="rgba(255,255,255,0.74)" font-size="20" font-family="Inter,Segoe UI,Arial,sans-serif">distortions and occasional</text>
      <text x="790" y="42" text-anchor="end" fill="rgba(255,255,255,0.92)" font-size="26" font-family="Inter,Segoe UI,Arial,sans-serif" letter-spacing="2">MYTHIC</text>
    </g>

    <g transform="translate(92 92)">
      <rect x="0" y="0" width="160" height="44" rx="22" fill="rgba(5,6,10,0.44)" stroke="rgba(255,140,0,0.35)" stroke-width="2"/>
      <text x="80" y="29" text-anchor="middle" fill="#FFFFFF" font-size="26" font-family="Inter,Segoe UI Symbol,Arial,sans-serif">◈  custom-addon-1020</text>
    </g>
  </g>
</svg>