<svg xmlns="http://www.w3.org/2000/svg" width="1024" height="1024" viewBox="0 0 1024 1024" role="img" aria-label="Dimensional Shard Brooch">
  <defs>
    <linearGradient id="bgGradient" x1="0" y1="0" x2="1" y2="1">
      <stop offset="0%" stop-color="#080915"/>
      <stop offset="45%" stop-color="#1e001e"/>
      <stop offset="100%" stop-color="#260026"/>
    </linearGradient>
    <radialGradient id="nebula" cx="50%" cy="40%" r="70%">
      <stop offset="0%" stop-color="rgba(255,0,255,0.46)"/>
      <stop offset="55%" stop-color="rgba(139,0,139,0.18)"/>
      <stop offset="100%" stop-color="rgba(139,0,139,0)"/>
    </radialGradient>
    <linearGradient id="frame" x1="0" y1="0" x2="1" y2="1">
      <stop offset="0%" stop-color="rgba(246,216,107,0.85)"/>
      <stop offset="50%" stop-color="rgba(139,0,139,0.82)"/>
      <stop offset="100%" stop-color="rgba(0,255,255,0.85)"/>
    </linearGradient>
    <linearGradient id="iconFill" x1="0" y1="0" x2="1" y2="1">
      <stop offset="0%" stop-color="#ab47ab"/>
      <stop offset="58%" stop-color="#FF00FF"/>
      <stop offset="100%" stop-color="#00FFFF"/>
    </linearGradient>
    <filter id="glowLarge" x="-40%" y="-40%" width="180%" height="180%">
      <feGaussianBlur stdDeviation="10" result="blur"/>
      <feMerge>
        <feMergeNode in="blur"/>
        <feMergeNode in="SourceGraphic"/>
      </feMerge>
    </filter>
    <filter id="softShadow" x="-20%" y="-20%" width="140%" height="140%">
      <feDropShadow dx="0" dy="18" stdDeviation="28" flood-color="rgba(139,0,139,0.55)"/>
    </filter>
    <clipPath id="cardClip">
      <rect x="36" y="36" width="952" height="952" rx="48"/>
    </clipPath>
  </defs>

  <rect width="1024" height="1024" fill="url(#bgGradient)"/>
  <g clip-path="url(#cardClip)">
    <rect x="36" y="36" width="952" height="952" rx="48" fill="url(#bgGradient)"/>
    <ellipse cx="512" cy="360" rx="430" ry="310" fill="url(#nebula)"/>
    <circle cx="240.0" cy="713.9" r="2.8" fill="white" opacity="0.77"/>
<circle cx="544.8" cy="536.1" r="4.0" fill="white" opacity="0.80"/>
<circle cx="317.7" cy="136.2" r="2.5" fill="white" opacity="0.71"/>
<circle cx="762.7" cy="347.6" r="1.9" fill="white" opacity="0.48"/>
<circle cx="860.2" cy="400.3" r="1.7" fill="white" opacity="0.80"/>
<circle cx="265.9" cy="308.2" r="4.8" fill="white" opacity="0.64"/>
<circle cx="652.1" cy="410.1" r="2.7" fill="white" opacity="0.57"/>
<circle cx="588.5" cy="155.5" r="1.8" fill="white" opacity="0.80"/>
<circle cx="645.8" cy="445.8" r="4.8" fill="white" opacity="0.34"/>
<circle cx="226.8" cy="594.8" r="4.1" fill="white" opacity="0.64"/>
<circle cx="567.6" cy="620.8" r="3.8" fill="white" opacity="0.43"/>
<circle cx="703.3" cy="239.7" r="2.1" fill="white" opacity="0.30"/>
<circle cx="861.0" cy="322.3" r="3.6" fill="white" opacity="0.27"/>
<circle cx="582.1" cy="423.9" r="3.9" fill="white" opacity="0.53"/>
<circle cx="168.2" cy="401.6" r="2.5" fill="white" opacity="0.35"/>
<circle cx="151.5" cy="530.4" r="2.0" fill="white" opacity="0.21"/>
<circle cx="343.0" cy="280.2" r="4.7" fill="white" opacity="0.39"/>
<circle cx="284.3" cy="551.5" r="4.8" fill="white" opacity="0.65"/>
<circle cx="784.3" cy="738.3" r="4.1" fill="white" opacity="0.47"/>
<circle cx="420.8" cy="403.3" r="3.2" fill="white" opacity="0.71"/>
<circle cx="173.8" cy="248.7" r="1.8" fill="white" opacity="0.32"/>
<circle cx="222.4" cy="352.0" r="2.1" fill="white" opacity="0.75"/>
<circle cx="573.1" cy="179.4" r="3.2" fill="white" opacity="0.39"/>
<circle cx="633.8" cy="467.9" r="1.9" fill="white" opacity="0.37"/>
    <g transform="translate(454.6 248.4) rotate(125.5)" opacity="0.36">
<path d="M0 -18.8 L4.5 -4.5 L18.8 0 L4.5 4.5 L0 18.8 L-4.5 4.5 L-18.8 0 L-4.5 -4.5 Z" fill="#00FFFF"/>
</g>
<g transform="translate(278.8 138.4) rotate(129.6)" opacity="0.52">
<path d="M0 -16.7 L4.0 -4.0 L16.7 0 L4.0 4.0 L0 16.7 L-4.0 4.0 L-16.7 0 L-4.0 -4.0 Z" fill="#00FFFF"/>
</g>
<g transform="translate(388.3 345.4) rotate(54.6)" opacity="0.24">
<path d="M0 -13.7 L3.3 -3.3 L13.7 0 L3.3 3.3 L0 13.7 L-3.3 3.3 L-13.7 0 L-3.3 -3.3 Z" fill="#00FFFF"/>
</g>
<g transform="translate(426.6 424.2) rotate(159.1)" opacity="0.31">
<path d="M0 -10.8 L2.6 -2.6 L10.8 0 L2.6 2.6 L0 10.8 L-2.6 2.6 L-10.8 0 L-2.6 -2.6 Z" fill="#00FFFF"/>
</g>
<g transform="translate(507.1 352.8) rotate(117.1)" opacity="0.30">
<path d="M0 -18.9 L4.5 -4.5 L18.9 0 L4.5 4.5 L0 18.9 L-4.5 4.5 L-18.9 0 L-4.5 -4.5 Z" fill="#00FFFF"/>
</g>
<g transform="translate(284.6 390.8) rotate(117.0)" opacity="0.19">
<path d="M0 -20.6 L4.9 -4.9 L20.6 0 L4.9 4.9 L0 20.6 L-4.9 4.9 L-20.6 0 L-4.9 -4.9 Z" fill="#00FFFF"/>
</g>
<g transform="translate(798.1 129.2) rotate(174.9)" opacity="0.19">
<path d="M0 -15.2 L3.7 -3.7 L15.2 0 L3.7 3.7 L0 15.2 L-3.7 3.7 L-15.2 0 L-3.7 -3.7 Z" fill="#00FFFF"/>
</g>
<g transform="translate(291.7 622.3) rotate(59.1)" opacity="0.53">
<path d="M0 -13.1 L3.1 -3.1 L13.1 0 L3.1 3.1 L0 13.1 L-3.1 3.1 L-13.1 0 L-3.1 -3.1 Z" fill="#00FFFF"/>
</g>
<g transform="translate(493.9 506.1) rotate(110.5)" opacity="0.35">
<path d="M0 -10.7 L2.6 -2.6 L10.7 0 L2.6 2.6 L0 10.7 L-2.6 2.6 L-10.7 0 L-2.6 -2.6 Z" fill="#00FFFF"/>
</g>
<g transform="translate(807.5 215.3) rotate(10.6)" opacity="0.36">
<path d="M0 -8.3 L2.0 -2.0 L8.3 0 L2.0 2.0 L0 8.3 L-2.0 2.0 L-8.3 0 L-2.0 -2.0 Z" fill="#00FFFF"/>
</g>
<g transform="translate(246.6 160.7) rotate(4.9)" opacity="0.37">
<path d="M0 -19.3 L4.6 -4.6 L19.3 0 L4.6 4.6 L0 19.3 L-4.6 4.6 L-19.3 0 L-4.6 -4.6 Z" fill="#00FFFF"/>
</g>
<g transform="translate(643.0 299.9) rotate(92.1)" opacity="0.31">
<path d="M0 -17.9 L4.3 -4.3 L17.9 0 L4.3 4.3 L0 17.9 L-4.3 4.3 L-17.9 0 L-4.3 -4.3 Z" fill="#00FFFF"/>
</g>
<g transform="translate(806.6 440.4) rotate(83.4)" opacity="0.35">
<path d="M0 -21.5 L5.2 -5.2 L21.5 0 L5.2 5.2 L0 21.5 L-5.2 5.2 L-21.5 0 L-5.2 -5.2 Z" fill="#00FFFF"/>
</g>
<g transform="translate(634.7 270.6) rotate(15.1)" opacity="0.40">
<path d="M0 -19.6 L4.7 -4.7 L19.6 0 L4.7 4.7 L0 19.6 L-4.7 4.7 L-19.6 0 L-4.7 -4.7 Z" fill="#00FFFF"/>
</g>
    <circle cx="512" cy="390" r="304" fill="none" stroke="rgba(139,0,139,0.16)" stroke-width="28"/>
    <circle cx="512" cy="390" r="280" fill="none" stroke="rgba(255,0,255,0.26)" stroke-width="5"/>
    
        <circle cx="512" cy="390" r="290" fill="none" stroke="rgba(255,0,255,0.28)" stroke-width="5" stroke-dasharray="4 14"/>
        <circle cx="512" cy="390" r="250" fill="none" stroke="rgba(0,255,255,0.35)" stroke-width="2"/>
        
    <g filter="url(#softShadow)">
      <circle cx="512" cy="392" r="226" fill="rgba(5,6,10,0.62)" stroke="rgba(246,216,107,0.22)" stroke-width="2"/>
      <circle cx="512" cy="392" r="178" fill="rgba(139,0,139,0.1)" stroke="rgba(0,255,255,0.24)" stroke-width="2"/>
      
    <g transform="translate(232 112) scale(5.6)">
      <path d="M 50 10 L 70 30 L 50 50 L 30 30 Z
        M 50 50 L 70 70 L 50 90 L 30 70 Z
        M 30 30 L 10 50 L 30 70
        M 70 30 L 90 50 L 70 70" fill="url(#iconFill)" stroke="#33ffff" stroke-width="1.6" stroke-linejoin="round" filter="url(#glowLarge)"/>
      <path d="M 50 10 L 70 30 L 50 50 L 30 30 Z
        M 50 50 L 70 70 L 50 90 L 30 70 Z
        M 30 30 L 10 50 L 30 70
        M 70 30 L 90 50 L 70 70" fill="none" stroke="white" stroke-width="0.55" opacity="0.38"/>
    </g>
    
    </g>

    <rect x="64" y="64" width="896" height="896" rx="34" fill="none" stroke="url(#frame)" stroke-width="3"/>

    <g transform="translate(92 760)">
      <rect x="0" y="0" width="840" height="172" rx="28" fill="rgba(5,6,10,0.45)" stroke="rgba(139,0,139,0.35)" stroke-width="2"/>
      <text x="34" y="42" fill="rgba(246,216,107,0.95)" font-size="22" font-family="Inter,Segoe UI,Arial,sans-serif" letter-spacing="3">1022  •  ACCESSORY</text>
      <text x="34" y="80" fill="white" font-size="34" font-weight="700" font-family="Inter,Segoe UI,Arial,sans-serif">Dimensional Shard</text><text x="34" y="120" fill="white" font-size="34" font-weight="700" font-family="Inter,Segoe UI,Arial,sans-serif">Brooch</text>
      <text x="34" y="134" fill="rgba(255,255,255,0.74)" font-size="20" font-family="Inter,Segoe UI,Arial,sans-serif">A brooch containing a fragment of</text><text x="34" y="158" fill="rgba(255,255,255,0.74)" font-size="20" font-family="Inter,Segoe UI,Arial,sans-serif">a fractured dimension, causing</text><text x="34" y="182" fill="rgba(255,255,255,0.74)" font-size="20" font-family="Inter,Segoe UI,Arial,sans-serif">localized gravitational anomalies</text>
      <text x="790" y="42" text-anchor="end" fill="rgba(0,255,255,0.92)" font-size="26" font-family="Inter,Segoe UI,Arial,sans-serif" letter-spacing="2">MYTHIC</text>
    </g>

    <g transform="translate(92 92)">
      <rect x="0" y="0" width="160" height="44" rx="22" fill="rgba(5,6,10,0.44)" stroke="rgba(139,0,139,0.35)" stroke-width="2"/>
      <text x="80" y="29" text-anchor="middle" fill="#00FFFF" font-size="26" font-family="Inter,Segoe UI Symbol,Arial,sans-serif">◈  custom-addon-1022</text>
    </g>
  </g>
</svg>