<svg xmlns="http://www.w3.org/2000/svg" width="1024" height="1024" viewBox="0 0 1024 1024" role="img" aria-label="Aura of Sentience">
  <defs>
    <linearGradient id="bgGradient" x1="0" y1="0" x2="1" y2="1">
      <stop offset="0%" stop-color="#080915"/>
      <stop offset="45%" stop-color="#382f00"/>
      <stop offset="100%" stop-color="#192607"/>
    </linearGradient>
    <radialGradient id="nebula" cx="50%" cy="40%" r="70%">
      <stop offset="0%" stop-color="rgba(173,255,47,0.46)"/>
      <stop offset="55%" stop-color="rgba(255,215,0,0.18)"/>
      <stop offset="100%" stop-color="rgba(255,215,0,0)"/>
    </radialGradient>
    <linearGradient id="frame" x1="0" y1="0" x2="1" y2="1">
      <stop offset="0%" stop-color="rgba(246,216,107,0.85)"/>
      <stop offset="50%" stop-color="rgba(255,215,0,0.82)"/>
      <stop offset="100%" stop-color="rgba(0,255,255,0.85)"/>
    </linearGradient>
    <linearGradient id="iconFill" x1="0" y1="0" x2="1" y2="1">
      <stop offset="0%" stop-color="#ffe247"/>
      <stop offset="58%" stop-color="#ADFF2F"/>
      <stop offset="100%" stop-color="#00FFFF"/>
    </linearGradient>
    <filter id="glowLarge" x="-40%" y="-40%" width="180%" height="180%">
      <feGaussianBlur stdDeviation="10" result="blur"/>
      <feMerge>
        <feMergeNode in="blur"/>
        <feMergeNode in="SourceGraphic"/>
      </feMerge>
    </filter>
    <filter id="softShadow" x="-20%" y="-20%" width="140%" height="140%">
      <feDropShadow dx="0" dy="18" stdDeviation="28" flood-color="rgba(255,215,0,0.55)"/>
    </filter>
    <clipPath id="cardClip">
      <rect x="36" y="36" width="952" height="952" rx="48"/>
    </clipPath>
  </defs>

  <rect width="1024" height="1024" fill="url(#bgGradient)"/>
  <g clip-path="url(#cardClip)">
    <rect x="36" y="36" width="952" height="952" rx="48" fill="url(#bgGradient)"/>
    <ellipse cx="512" cy="360" rx="430" ry="310" fill="url(#nebula)"/>
    <circle cx="503.5" cy="398.2" r="5.0" fill="white" opacity="0.50"/>
<circle cx="143.7" cy="723.9" r="3.0" fill="white" opacity="0.75"/>
<circle cx="413.9" cy="373.8" r="1.7" fill="white" opacity="0.90"/>
<circle cx="339.2" cy="729.4" r="3.7" fill="white" opacity="0.84"/>
<circle cx="285.2" cy="552.7" r="1.9" fill="white" opacity="0.38"/>
<circle cx="788.3" cy="615.8" r="4.1" fill="white" opacity="0.53"/>
<circle cx="524.7" cy="391.3" r="1.9" fill="white" opacity="0.80"/>
<circle cx="842.5" cy="483.8" r="3.2" fill="white" opacity="0.44"/>
<circle cx="564.5" cy="371.8" r="2.7" fill="white" opacity="0.66"/>
<circle cx="754.5" cy="679.2" r="4.5" fill="white" opacity="0.90"/>
<circle cx="652.2" cy="112.6" r="4.8" fill="white" opacity="0.59"/>
<circle cx="306.7" cy="361.0" r="3.3" fill="white" opacity="0.46"/>
<circle cx="719.9" cy="276.5" r="4.4" fill="white" opacity="0.74"/>
<circle cx="859.5" cy="187.2" r="3.0" fill="white" opacity="0.61"/>
<circle cx="413.2" cy="551.8" r="1.7" fill="white" opacity="0.36"/>
<circle cx="478.0" cy="749.2" r="3.0" fill="white" opacity="0.41"/>
<circle cx="397.3" cy="632.9" r="1.6" fill="white" opacity="0.49"/>
<circle cx="176.4" cy="148.3" r="1.9" fill="white" opacity="0.66"/>
<circle cx="599.7" cy="154.3" r="3.7" fill="white" opacity="0.61"/>
<circle cx="725.8" cy="373.9" r="3.8" fill="white" opacity="0.59"/>
<circle cx="873.8" cy="458.2" r="4.2" fill="white" opacity="0.29"/>
<circle cx="419.0" cy="453.9" r="2.3" fill="white" opacity="0.31"/>
<circle cx="684.5" cy="402.7" r="3.3" fill="white" opacity="0.64"/>
<circle cx="632.7" cy="731.1" r="2.4" fill="white" opacity="0.56"/>
    <g transform="translate(798.9 488.2) rotate(92.8)" opacity="0.47">
<path d="M0 -11.1 L2.7 -2.7 L11.1 0 L2.7 2.7 L0 11.1 L-2.7 2.7 L-11.1 0 L-2.7 -2.7 Z" fill="#00FFFF"/>
</g>
<g transform="translate(293.3 605.1) rotate(34.0)" opacity="0.41">
<path d="M0 -9.8 L2.4 -2.4 L9.8 0 L2.4 2.4 L0 9.8 L-2.4 2.4 L-9.8 0 L-2.4 -2.4 Z" fill="#00FFFF"/>
</g>
<g transform="translate(548.8 530.1) rotate(72.7)" opacity="0.36">
<path d="M0 -17.8 L4.3 -4.3 L17.8 0 L4.3 4.3 L0 17.8 L-4.3 4.3 L-17.8 0 L-4.3 -4.3 Z" fill="#00FFFF"/>
</g>
<g transform="translate(353.3 138.9) rotate(53.0)" opacity="0.36">
<path d="M0 -21.3 L5.1 -5.1 L21.3 0 L5.1 5.1 L0 21.3 L-5.1 5.1 L-21.3 0 L-5.1 -5.1 Z" fill="#00FFFF"/>
</g>
<g transform="translate(711.3 250.5) rotate(85.3)" opacity="0.51">
<path d="M0 -9.8 L2.3 -2.3 L9.8 0 L2.3 2.3 L0 9.8 L-2.3 2.3 L-9.8 0 L-2.3 -2.3 Z" fill="#00FFFF"/>
</g>
<g transform="translate(755.6 274.0) rotate(107.2)" opacity="0.49">
<path d="M0 -20.8 L5.0 -5.0 L20.8 0 L5.0 5.0 L0 20.8 L-5.0 5.0 L-20.8 0 L-5.0 -5.0 Z" fill="#00FFFF"/>
</g>
<g transform="translate(333.2 126.3) rotate(121.9)" opacity="0.28">
<path d="M0 -15.0 L3.6 -3.6 L15.0 0 L3.6 3.6 L0 15.0 L-3.6 3.6 L-15.0 0 L-3.6 -3.6 Z" fill="#00FFFF"/>
</g>
<g transform="translate(802.9 206.1) rotate(87.6)" opacity="0.45">
<path d="M0 -21.6 L5.2 -5.2 L21.6 0 L5.2 5.2 L0 21.6 L-5.2 5.2 L-21.6 0 L-5.2 -5.2 Z" fill="#00FFFF"/>
</g>
<g transform="translate(368.2 250.2) rotate(175.2)" opacity="0.50">
<path d="M0 -9.5 L2.3 -2.3 L9.5 0 L2.3 2.3 L0 9.5 L-2.3 2.3 L-9.5 0 L-2.3 -2.3 Z" fill="#00FFFF"/>
</g>
<g transform="translate(420.8 614.0) rotate(14.2)" opacity="0.49">
<path d="M0 -16.0 L3.8 -3.8 L16.0 0 L3.8 3.8 L0 16.0 L-3.8 3.8 L-16.0 0 L-3.8 -3.8 Z" fill="#00FFFF"/>
</g>
<g transform="translate(329.3 185.5) rotate(44.4)" opacity="0.50">
<path d="M0 -15.5 L3.7 -3.7 L15.5 0 L3.7 3.7 L0 15.5 L-3.7 3.7 L-15.5 0 L-3.7 -3.7 Z" fill="#00FFFF"/>
</g>
<g transform="translate(468.4 302.2) rotate(17.2)" opacity="0.22">
<path d="M0 -16.8 L4.0 -4.0 L16.8 0 L4.0 4.0 L0 16.8 L-4.0 4.0 L-16.8 0 L-4.0 -4.0 Z" fill="#00FFFF"/>
</g>
<g transform="translate(459.4 416.2) rotate(93.8)" opacity="0.46">
<path d="M0 -11.3 L2.7 -2.7 L11.3 0 L2.7 2.7 L0 11.3 L-2.7 2.7 L-11.3 0 L-2.7 -2.7 Z" fill="#00FFFF"/>
</g>
<g transform="translate(751.7 296.5) rotate(26.6)" opacity="0.33">
<path d="M0 -20.5 L4.9 -4.9 L20.5 0 L4.9 4.9 L0 20.5 L-4.9 4.9 L-20.5 0 L-4.9 -4.9 Z" fill="#00FFFF"/>
</g>
    <circle cx="512" cy="390" r="304" fill="none" stroke="rgba(255,215,0,0.16)" stroke-width="28"/>
    <circle cx="512" cy="390" r="280" fill="none" stroke="rgba(173,255,47,0.26)" stroke-width="5"/>
    
        <circle cx="512" cy="390" r="290" fill="none" stroke="rgba(0,255,255,0.3)" stroke-width="4"/>
        <path d="M512 108 L540 164 L602 171 L557 214 L568 276 L512 246 L456 276 L467 214 L422 171 L484 164 Z" fill="rgba(173,255,47,0.2)" stroke="rgba(0,255,255,0.45)" stroke-width="2"/>
        
    <g filter="url(#softShadow)">
      <circle cx="512" cy="392" r="226" fill="rgba(5,6,10,0.62)" stroke="rgba(246,216,107,0.22)" stroke-width="2"/>
      <circle cx="512" cy="392" r="178" fill="rgba(255,215,0,0.1)" stroke="rgba(0,255,255,0.24)" stroke-width="2"/>
      
    <g transform="translate(232 112) scale(5.6)">
      <path d="M 50 10 A 40 40 0 1 1 50 90 A 40 40 0 1 1 50 10 Z
        M 30 40 L 40 30 L 50 40 L 60 30 L 70 40
        M 30 60 L 40 70 L 50 60 L 60 70 L 70 60" fill="url(#iconFill)" stroke="#33ffff" stroke-width="1.6" stroke-linejoin="round" filter="url(#glowLarge)"/>
      <path d="M 50 10 A 40 40 0 1 1 50 90 A 40 40 0 1 1 50 10 Z
        M 30 40 L 40 30 L 50 40 L 60 30 L 70 40
        M 30 60 L 40 70 L 50 60 L 60 70 L 70 60" fill="none" stroke="white" stroke-width="0.55" opacity="0.38"/>
    </g>
    
    </g>

    <rect x="64" y="64" width="896" height="896" rx="34" fill="none" stroke="url(#frame)" stroke-width="3"/>

    <g transform="translate(92 760)">
      <rect x="0" y="0" width="840" height="172" rx="28" fill="rgba(5,6,10,0.45)" stroke="rgba(255,215,0,0.35)" stroke-width="2"/>
      <text x="34" y="42" fill="rgba(246,216,107,0.95)" font-size="22" font-family="Inter,Segoe UI,Arial,sans-serif" letter-spacing="3">1023  •  AURA</text>
      <text x="34" y="80" fill="white" font-size="34" font-weight="700" font-family="Inter,Segoe UI,Arial,sans-serif">Aura of Sentience</text>
      <text x="34" y="134" fill="rgba(255,255,255,0.74)" font-size="20" font-family="Inter,Segoe UI,Arial,sans-serif">An aura that grants heightened</text><text x="34" y="158" fill="rgba(255,255,255,0.74)" font-size="20" font-family="Inter,Segoe UI,Arial,sans-serif">awareness, occasionally revealing</text><text x="34" y="182" fill="rgba(255,255,255,0.74)" font-size="20" font-family="Inter,Segoe UI,Arial,sans-serif">hidden truths or precognitive</text>
      <text x="790" y="42" text-anchor="end" fill="rgba(0,255,255,0.92)" font-size="26" font-family="Inter,Segoe UI,Arial,sans-serif" letter-spacing="2">MYTHIC</text>
    </g>

    <g transform="translate(92 92)">
      <rect x="0" y="0" width="160" height="44" rx="22" fill="rgba(5,6,10,0.44)" stroke="rgba(255,215,0,0.35)" stroke-width="2"/>
      <text x="80" y="29" text-anchor="middle" fill="#00FFFF" font-size="26" font-family="Inter,Segoe UI Symbol,Arial,sans-serif">✺  custom-addon-1023</text>
    </g>
  </g>
</svg>