<svg xmlns="http://www.w3.org/2000/svg" width="1072" height="1072" viewBox="0 0 1072 1072">
  <rect width="1072" height="1072" fill="#07080d"/>
  <text x="536" y="30" text-anchor="middle" fill="white" font-size="22" font-family="Inter,Segoe UI,Arial,sans-serif">Epic Addon SVG Collection 1008–1023</text>
  
    <g transform="translate(40 40)">
      <rect x="0" y="0" width="208" height="208" rx="18" fill="rgba(11,12,18,1)" stroke="rgba(138,43,226,0.55)"/>
      <image href="1008-quantum-entanglement-scarf.svg" x="10" y="10" width="188" height="188" preserveAspectRatio="xMidYMid meet"/>
      <rect x="0" y="168" width="208" height="40" rx="0" fill="rgba(4,5,7,0.8)"/>
      <text x="104" y="192" text-anchor="middle" fill="white" font-size="14" font-family="Inter,Segoe UI,Arial,sans-serif">1008</text>
    </g>
    
    <g transform="translate(288 40)">
      <rect x="0" y="0" width="208" height="208" rx="18" fill="rgba(11,12,18,1)" stroke="rgba(79,79,79,0.55)"/>
      <image href="1009-gravity-well-gauntlet.svg" x="10" y="10" width="188" height="188" preserveAspectRatio="xMidYMid meet"/>
      <rect x="0" y="168" width="208" height="40" rx="0" fill="rgba(4,5,7,0.8)"/>
      <text x="104" y="192" text-anchor="middle" fill="white" font-size="14" font-family="Inter,Segoe UI,Arial,sans-serif">1009</text>
    </g>
    
    <g transform="translate(536 40)">
      <rect x="0" y="0" width="208" height="208" rx="18" fill="rgba(11,12,18,1)" stroke="rgba(30,144,255,0.55)"/>
      <image href="1010-chrono-shift-goggles.svg" x="10" y="10" width="188" height="188" preserveAspectRatio="xMidYMid meet"/>
      <rect x="0" y="168" width="208" height="40" rx="0" fill="rgba(4,5,7,0.8)"/>
      <text x="104" y="192" text-anchor="middle" fill="white" font-size="14" font-family="Inter,Segoe UI,Arial,sans-serif">1010</text>
    </g>
    
    <g transform="translate(784 40)">
      <rect x="0" y="0" width="208" height="208" rx="18" fill="rgba(11,12,18,1)" stroke="rgba(25,25,112,0.55)"/>
      <image href="1011-echoing-void-orb.svg" x="10" y="10" width="188" height="188" preserveAspectRatio="xMidYMid meet"/>
      <rect x="0" y="168" width="208" height="40" rx="0" fill="rgba(4,5,7,0.8)"/>
      <text x="104" y="192" text-anchor="middle" fill="white" font-size="14" font-family="Inter,Segoe UI,Arial,sans-serif">1011</text>
    </g>
    
    <g transform="translate(40 288)">
      <rect x="0" y="0" width="208" height="208" rx="18" fill="rgba(11,12,18,1)" stroke="rgba(255,215,0,0.55)"/>
      <image href="1012-reality-anchor-pin.svg" x="10" y="10" width="188" height="188" preserveAspectRatio="xMidYMid meet"/>
      <rect x="0" y="168" width="208" height="40" rx="0" fill="rgba(4,5,7,0.8)"/>
      <text x="104" y="192" text-anchor="middle" fill="white" font-size="14" font-family="Inter,Segoe UI,Arial,sans-serif">1012</text>
    </g>
    
    <g transform="translate(288 288)">
      <rect x="0" y="0" width="208" height="208" rx="18" fill="rgba(11,12,18,1)" stroke="rgba(147,112,219,0.55)"/>
      <image href="1013-dream-weaver-circlet.svg" x="10" y="10" width="188" height="188" preserveAspectRatio="xMidYMid meet"/>
      <rect x="0" y="168" width="208" height="40" rx="0" fill="rgba(4,5,7,0.8)"/>
      <text x="104" y="192" text-anchor="middle" fill="white" font-size="14" font-family="Inter,Segoe UI,Arial,sans-serif">1013</text>
    </g>
    
    <g transform="translate(536 288)">
      <rect x="0" y="0" width="208" height="208" rx="18" fill="rgba(11,12,18,1)" stroke="rgba(70,130,180,0.55)"/>
      <image href="1014-temporal-loop-charm.svg" x="10" y="10" width="188" height="188" preserveAspectRatio="xMidYMid meet"/>
      <rect x="0" y="168" width="208" height="40" rx="0" fill="rgba(4,5,7,0.8)"/>
      <text x="104" y="192" text-anchor="middle" fill="white" font-size="14" font-family="Inter,Segoe UI,Arial,sans-serif">1014</text>
    </g>
    
    <g transform="translate(784 288)">
      <rect x="0" y="0" width="208" height="208" rx="18" fill="rgba(11,12,18,1)" stroke="rgba(0,206,209,0.55)"/>
      <image href="1015-aetheric-blade.svg" x="10" y="10" width="188" height="188" preserveAspectRatio="xMidYMid meet"/>
      <rect x="0" y="168" width="208" height="40" rx="0" fill="rgba(4,5,7,0.8)"/>
      <text x="104" y="192" text-anchor="middle" fill="white" font-size="14" font-family="Inter,Segoe UI,Arial,sans-serif">1015</text>
    </g>
    
    <g transform="translate(40 536)">
      <rect x="0" y="0" width="208" height="208" rx="18" fill="rgba(11,12,18,1)" stroke="rgba(128,0,128,0.55)"/>
      <image href="1016-illusionist-s-veil.svg" x="10" y="10" width="188" height="188" preserveAspectRatio="xMidYMid meet"/>
      <rect x="0" y="168" width="208" height="40" rx="0" fill="rgba(4,5,7,0.8)"/>
      <text x="104" y="192" text-anchor="middle" fill="white" font-size="14" font-family="Inter,Segoe UI,Arial,sans-serif">1016</text>
    </g>
    
    <g transform="translate(288 536)">
      <rect x="0" y="0" width="208" height="208" rx="18" fill="rgba(11,12,18,1)" stroke="rgba(25,25,112,0.55)"/>
      <image href="1017-starlight-mantle.svg" x="10" y="10" width="188" height="188" preserveAspectRatio="xMidYMid meet"/>
      <rect x="0" y="168" width="208" height="40" rx="0" fill="rgba(4,5,7,0.8)"/>
      <text x="104" y="192" text-anchor="middle" fill="white" font-size="14" font-family="Inter,Segoe UI,Arial,sans-serif">1017</text>
    </g>
    
    <g transform="translate(536 536)">
      <rect x="0" y="0" width="208" height="208" rx="18" fill="rgba(11,12,18,1)" stroke="rgba(255,69,0,0.55)"/>
      <image href="1018-resonance-amplifier.svg" x="10" y="10" width="188" height="188" preserveAspectRatio="xMidYMid meet"/>
      <rect x="0" y="168" width="208" height="40" rx="0" fill="rgba(4,5,7,0.8)"/>
      <text x="104" y="192" text-anchor="middle" fill="white" font-size="14" font-family="Inter,Segoe UI,Arial,sans-serif">1018</text>
    </g>
    
    <g transform="translate(784 536)">
      <rect x="0" y="0" width="208" height="208" rx="18" fill="rgba(11,12,18,1)" stroke="rgba(47,79,79,0.55)"/>
      <image href="1019-void-step-boots.svg" x="10" y="10" width="188" height="188" preserveAspectRatio="xMidYMid meet"/>
      <rect x="0" y="168" width="208" height="40" rx="0" fill="rgba(4,5,7,0.8)"/>
      <text x="104" y="192" text-anchor="middle" fill="white" font-size="14" font-family="Inter,Segoe UI,Arial,sans-serif">1019</text>
    </g>
    
    <g transform="translate(40 784)">
      <rect x="0" y="0" width="208" height="208" rx="18" fill="rgba(11,12,18,1)" stroke="rgba(255,140,0,0.55)"/>
      <image href="1020-reality-bending-ring.svg" x="10" y="10" width="188" height="188" preserveAspectRatio="xMidYMid meet"/>
      <rect x="0" y="168" width="208" height="40" rx="0" fill="rgba(4,5,7,0.8)"/>
      <text x="104" y="192" text-anchor="middle" fill="white" font-size="14" font-family="Inter,Segoe UI,Arial,sans-serif">1020</text>
    </g>
    
    <g transform="translate(288 784)">
      <rect x="0" y="0" width="208" height="208" rx="18" fill="rgba(11,12,18,1)" stroke="rgba(169,169,169,0.55)"/>
      <image href="1021-chronal-compass.svg" x="10" y="10" width="188" height="188" preserveAspectRatio="xMidYMid meet"/>
      <rect x="0" y="168" width="208" height="40" rx="0" fill="rgba(4,5,7,0.8)"/>
      <text x="104" y="192" text-anchor="middle" fill="white" font-size="14" font-family="Inter,Segoe UI,Arial,sans-serif">1021</text>
    </g>
    
    <g transform="translate(536 784)">
      <rect x="0" y="0" width="208" height="208" rx="18" fill="rgba(11,12,18,1)" stroke="rgba(139,0,139,0.55)"/>
      <image href="1022-dimensional-shard-brooch.svg" x="10" y="10" width="188" height="188" preserveAspectRatio="xMidYMid meet"/>
      <rect x="0" y="168" width="208" height="40" rx="0" fill="rgba(4,5,7,0.8)"/>
      <text x="104" y="192" text-anchor="middle" fill="white" font-size="14" font-family="Inter,Segoe UI,Arial,sans-serif">1022</text>
    </g>
    
    <g transform="translate(784 784)">
      <rect x="0" y="0" width="208" height="208" rx="18" fill="rgba(11,12,18,1)" stroke="rgba(255,215,0,0.55)"/>
      <image href="1023-aura-of-sentience.svg" x="10" y="10" width="188" height="188" preserveAspectRatio="xMidYMid meet"/>
      <rect x="0" y="168" width="208" height="40" rx="0" fill="rgba(4,5,7,0.8)"/>
      <text x="104" y="192" text-anchor="middle" fill="white" font-size="14" font-family="Inter,Segoe UI,Arial,sans-serif">1023</text>
    </g>
    
</svg>