<svg xmlns="http://www.w3.org/2000/svg" width="1024" height="1024" viewBox="0 0 1024 1024" role="img" aria-label="Starlight Mantle">
  <defs>
    <linearGradient id="bgGradient" x1="0" y1="0" x2="1" y2="1">
      <stop offset="0%" stop-color="#070916"/>
      <stop offset="42%" stop-color="#0a0d23"/>
      <stop offset="100%" stop-color="#14041f"/>
    </linearGradient>
    <radialGradient id="skyBloom" cx="50%" cy="34%" r="74%">
      <stop offset="0%" stop-color="#7b5cff" stop-opacity="0.34"/>
      <stop offset="42%" stop-color="#2d3ea8" stop-opacity="0.18"/>
      <stop offset="72%" stop-color="#140b3d" stop-opacity="0.10"/>
      <stop offset="100%" stop-color="#080915" stop-opacity="0"/>
    </radialGradient>
    <radialGradient id="haloGlow" cx="50%" cy="50%" r="50%">
      <stop offset="0%" stop-color="#ffffff" stop-opacity="0.24"/>
      <stop offset="55%" stop-color="#8f7dff" stop-opacity="0.14"/>
      <stop offset="100%" stop-color="#8f7dff" stop-opacity="0"/>
    </radialGradient>
    <linearGradient id="frame" x1="0" y1="0" x2="1" y2="1">
      <stop offset="0%" stop-color="#f7df86" stop-opacity="0.95"/>
      <stop offset="50%" stop-color="#4f4dd8" stop-opacity="0.75"/>
      <stop offset="100%" stop-color="#ffffff" stop-opacity="0.85"/>
    </linearGradient>
    <linearGradient id="mantleFill" x1="0" y1="0" x2="1" y2="1">
      <stop offset="0%" stop-color="#d7dbff"/>
      <stop offset="20%" stop-color="#98b4ff"/>
      <stop offset="56%" stop-color="#5448d1"/>
      <stop offset="100%" stop-color="#241548"/>
    </linearGradient>
    <linearGradient id="mantleEdge" x1="0" y1="0" x2="1" y2="1">
      <stop offset="0%" stop-color="#ffffff" stop-opacity="0.95"/>
      <stop offset="50%" stop-color="#f7df86" stop-opacity="0.8"/>
      <stop offset="100%" stop-color="#a39bff" stop-opacity="0.8"/>
    </linearGradient>
    <linearGradient id="innerFold" x1="0" y1="0" x2="0" y2="1">
      <stop offset="0%" stop-color="#edf1ff" stop-opacity="0.92"/>
      <stop offset="40%" stop-color="#9aa5ff" stop-opacity="0.44"/>
      <stop offset="100%" stop-color="#2a1954" stop-opacity="0.08"/>
    </linearGradient>
    <linearGradient id="goldLine" x1="0" y1="0" x2="1" y2="1">
      <stop offset="0%" stop-color="#fff3b5"/>
      <stop offset="40%" stop-color="#f6d86b"/>
      <stop offset="100%" stop-color="#b79d32"/>
    </linearGradient>
    <filter id="softGlow" x="-50%" y="-50%" width="200%" height="200%">
      <feGaussianBlur stdDeviation="8" result="blur"/>
      <feMerge>
        <feMergeNode in="blur"/>
        <feMergeNode in="SourceGraphic"/>
      </feMerge>
    </filter>
    <filter id="bigGlow" x="-60%" y="-60%" width="220%" height="220%">
      <feGaussianBlur stdDeviation="18" result="blur"/>
      <feMerge>
        <feMergeNode in="blur"/>
        <feMergeNode in="SourceGraphic"/>
      </feMerge>
    </filter>
    <filter id="shadow" x="-30%" y="-30%" width="160%" height="160%">
      <feDropShadow dx="0" dy="20" stdDeviation="26" flood-color="#060812" flood-opacity="0.9"/>
    </filter>
    <clipPath id="cardClip">
      <rect x="34" y="34" width="956" height="956" rx="52"/>
    </clipPath>
  </defs>

  <rect width="1024" height="1024" fill="url(#bgGradient)"/>
  <g clip-path="url(#cardClip)">
    <rect x="34" y="34" width="956" height="956" rx="52" fill="url(#bgGradient)"/>
    <ellipse cx="512" cy="332" rx="450" ry="318" fill="url(#skyBloom)"/>
    <circle cx="512" cy="372" r="326" fill="url(#haloGlow)"/>

    <circle cx="132" cy="190" r="2.1" fill="#ffffff" opacity="0.70"/>
    <circle cx="178" cy="272" r="2.8" fill="#ffffff" opacity="0.48"/>
    <circle cx="214" cy="132" r="1.8" fill="#ffffff" opacity="0.85"/>
    <circle cx="258" cy="238" r="3.4" fill="#ffffff" opacity="0.76"/>
    <circle cx="301" cy="180" r="1.7" fill="#ffffff" opacity="0.56"/>
    <circle cx="338" cy="312" r="2.5" fill="#ffffff" opacity="0.58"/>
    <circle cx="388" cy="128" r="4" fill="#ffffff" opacity="0.92"/>
    <circle cx="430" cy="258" r="2.3" fill="#ffffff" opacity="0.62"/>
    <circle cx="474" cy="144" r="2" fill="#ffffff" opacity="0.72"/>
    <circle cx="512" cy="114" r="1.8" fill="#ffffff" opacity="0.9"/>
    <circle cx="566" cy="154" r="2.9" fill="#ffffff" opacity="0.78"/>
    <circle cx="616" cy="106" r="1.9" fill="#ffffff" opacity="0.66"/>
    <circle cx="670" cy="220" r="4.6" fill="#ffffff" opacity="0.86"/>
    <circle cx="712" cy="142" r="2.1" fill="#ffffff" opacity="0.64"/>
    <circle cx="774" cy="268" r="2.8" fill="#ffffff" opacity="0.74"/>
    <circle cx="826" cy="180" r="1.8" fill="#ffffff" opacity="0.52"/>
    <circle cx="886" cy="240" r="3.1" fill="#ffffff" opacity="0.62"/>
    <circle cx="900" cy="360" r="2.4" fill="#ffffff" opacity="0.42"/>
    <circle cx="822" cy="440" r="1.9" fill="#ffffff" opacity="0.56"/>
    <circle cx="746" cy="508" r="2.6" fill="#ffffff" opacity="0.42"/>
    <circle cx="660" cy="586" r="3.1" fill="#ffffff" opacity="0.48"/>
    <circle cx="574" cy="628" r="2.1" fill="#ffffff" opacity="0.60"/>
    <circle cx="468" cy="610" r="2.9" fill="#ffffff" opacity="0.46"/>
    <circle cx="358" cy="584" r="2.5" fill="#ffffff" opacity="0.35"/>
    <circle cx="274" cy="534" r="2.2" fill="#ffffff" opacity="0.39"/>
    <circle cx="186" cy="470" r="2.9" fill="#ffffff" opacity="0.33"/>

    <g opacity="0.85" filter="url(#softGlow)">
      <path d="M186 228 L201 233 L206 248 L211 233 L226 228 L211 223 L206 208 L201 223 Z" fill="#ffffff"/>
      <path d="M768 196 L775 198 L777 205 L779 198 L786 196 L779 194 L777 187 L775 194 Z" fill="#ffffff"/>
      <path d="M606 270 L616 273 L619 283 L622 273 L632 270 L622 267 L619 257 L616 267 Z" fill="#ffffff"/>
      <path d="M324 150 L333 153 L336 162 L339 153 L348 150 L339 147 L336 138 L333 147 Z" fill="#ffffff"/>
      <path d="M866 304 L876 307 L879 317 L882 307 L892 304 L882 301 L879 291 L876 301 Z" fill="#ffffff"/>
      <path d="M720 570 L731 574 L735 585 L739 574 L750 570 L739 566 L735 555 L731 566 Z" fill="#ffffff"/>
    </g>

    <g opacity="0.45">
      <path d="M202 248 C300 180 382 144 500 138" fill="none" stroke="#dfe6ff" stroke-opacity="0.4" stroke-width="1.6"/>
      <path d="M500 138 C582 140 650 158 736 202" fill="none" stroke="#dfe6ff" stroke-opacity="0.38" stroke-width="1.6"/>
      <path d="M736 202 C792 232 828 266 876 308" fill="none" stroke="#dfe6ff" stroke-opacity="0.28" stroke-width="1.4"/>
      <path d="M736 202 C694 236 652 256 618 272" fill="none" stroke="#dfe6ff" stroke-opacity="0.26" stroke-width="1.2"/>
      <path d="M500 138 C454 146 396 150 338 156" fill="none" stroke="#dfe6ff" stroke-opacity="0.22" stroke-width="1.2"/>
    </g>

    <circle cx="512" cy="382" r="312" fill="none" stroke="#2c347d" stroke-opacity="0.32" stroke-width="28"/>
    <circle cx="512" cy="382" r="285" fill="none" stroke="#7b5cff" stroke-opacity="0.24" stroke-width="6"/>
    <circle cx="512" cy="382" r="296" fill="none" stroke="#ffffff" stroke-opacity="0.26" stroke-width="2" stroke-dasharray="4 16"/>
    <circle cx="512" cy="382" r="246" fill="none" stroke="#f6d86b" stroke-opacity="0.26" stroke-width="2.4"/>

    <g filter="url(#shadow)">
      <circle cx="512" cy="404" r="222" fill="#07101f" fill-opacity="0.72" stroke="#f6d86b" stroke-opacity="0.24" stroke-width="2"/>
      <circle cx="512" cy="404" r="180" fill="#1d1f55" fill-opacity="0.18" stroke="#ffffff" stroke-opacity="0.22" stroke-width="2"/>
      <circle cx="512" cy="316" r="50" fill="#ffffff" fill-opacity="0.08" filter="url(#bigGlow)"/>

      <g transform="translate(512 410)">
        <path d="M0 -188 C64 -182 124 -144 146 -78 C162 -30 148 52 126 130 C108 194 68 240 0 258 C-68 240 -108 194 -126 130 C-148 52 -162 -30 -146 -78 C-124 -144 -64 -182 0 -188 Z" fill="url(#mantleFill)" stroke="url(#mantleEdge)" stroke-width="5" stroke-linejoin="round"/>
        <path d="M0 -170 C44 -166 84 -140 98 -90 C110 -50 98 24 82 94 C68 152 42 192 0 208 C-42 192 -68 152 -82 94 C-98 24 -110 -50 -98 -90 C-84 -140 -44 -166 0 -170 Z" fill="#ffffff" fill-opacity="0.07"/>
        <path d="M0 -188 C30 -182 58 -168 78 -146 C44 -130 18 -120 0 -118 C-18 -120 -44 -130 -78 -146 C-58 -168 -30 -182 0 -188 Z" fill="#edf0ff" fill-opacity="0.5"/>
        <path d="M-84 -144 C-46 -114 -18 -100 0 -98 C18 -100 46 -114 84 -144" fill="none" stroke="url(#goldLine)" stroke-width="3" stroke-linecap="round"/>
        <path d="M0 -130 C18 -78 28 -18 28 58 C28 118 18 174 0 226" fill="none" stroke="#ffffff" stroke-opacity="0.34" stroke-width="2.3" stroke-linecap="round"/>
        <path d="M-34 -78 C-18 -16 -12 46 -12 116 C-12 152 -16 186 -24 216" fill="none" stroke="#ffffff" stroke-opacity="0.22" stroke-width="1.8" stroke-linecap="round"/>
        <path d="M34 -78 C18 -16 12 46 12 116 C12 152 16 186 24 216" fill="none" stroke="#ffffff" stroke-opacity="0.22" stroke-width="1.8" stroke-linecap="round"/>
        <path d="M-120 -14 C-96 18 -84 54 -76 102" fill="none" stroke="#f6d86b" stroke-opacity="0.46" stroke-width="2.2" stroke-linecap="round"/>
        <path d="M120 -14 C96 18 84 54 76 102" fill="none" stroke="#f6d86b" stroke-opacity="0.46" stroke-width="2.2" stroke-linecap="round"/>
        <path d="M-110 10 C-78 10 -48 22 -22 42" fill="none" stroke="#ffffff" stroke-opacity="0.16" stroke-width="1.5"/>
        <path d="M110 10 C78 10 48 22 22 42" fill="none" stroke="#ffffff" stroke-opacity="0.16" stroke-width="1.5"/>
        <path d="M-70 136 C-48 164 -24 190 0 214 C24 190 48 164 70 136" fill="none" stroke="url(#goldLine)" stroke-width="2.4" stroke-linecap="round"/>
        <path d="M-58 -130 C-74 -30 -76 88 -56 184" fill="none" stroke="#cfd7ff" stroke-opacity="0.12" stroke-width="20" stroke-linecap="round"/>
        <path d="M58 -130 C74 -30 76 88 56 184" fill="none" stroke="#cfd7ff" stroke-opacity="0.12" stroke-width="20" stroke-linecap="round"/>
        <path d="M0 -148 C44 -140 82 -110 96 -56 C102 -32 102 -2 90 26 C78 -8 54 -28 22 -38 C16 -74 8 -110 0 -148 Z" fill="url(#innerFold)" opacity="0.72"/>
        <path d="M0 -148 C-44 -140 -82 -110 -96 -56 C-102 -32 -102 -2 -90 26 C-78 -8 -54 -28 -22 -38 C-16 -74 -8 -110 0 -148 Z" fill="url(#innerFold)" opacity="0.72"/>

        <g fill="#ffffff" opacity="0.9" filter="url(#softGlow)">
          <circle cx="0" cy="-114" r="4.2"/>
          <circle cx="-42" cy="-98" r="3.2"/>
          <circle cx="42" cy="-98" r="3.2"/>
          <circle cx="-24" cy="-42" r="2.8"/>
          <circle cx="28" cy="-22" r="2.6"/>
          <circle cx="-16" cy="28" r="2.4"/>
          <circle cx="32" cy="74" r="2.9"/>
          <circle cx="-34" cy="104" r="2.4"/>
          <circle cx="0" cy="152" r="3.6"/>
        </g>

        <g fill="none" stroke="#ffffff" stroke-opacity="0.28" stroke-width="1.3">
          <path d="M0 -114 L-42 -98 L-24 -42 L-16 28 L-34 104 L0 152"/>
          <path d="M0 -114 L42 -98 L28 -22 L32 74 L0 152"/>
          <path d="M-42 -98 L42 -98"/>
        </g>
      </g>
    </g>

    <rect x="62" y="62" width="900" height="900" rx="36" fill="none" stroke="url(#frame)" stroke-width="3.5"/>
    <rect x="78" y="78" width="868" height="868" rx="24" fill="none" stroke="#ffffff" stroke-opacity="0.08" stroke-width="1.2"/>

    <g transform="translate(92 90)">
      <rect x="0" y="0" width="300" height="48" rx="24" fill="#05070f" fill-opacity="0.58" stroke="#4c52bf" stroke-opacity="0.45" stroke-width="2"/>
      <text x="150" y="31" text-anchor="middle" fill="#ffffff" font-size="24" font-family="Inter, Segoe UI, Arial, sans-serif" letter-spacing="0.6">◈ custom-addon-1017</text>
    </g>

    <g transform="translate(86 742)">
      <rect x="0" y="0" width="852" height="196" rx="30" fill="#060812" fill-opacity="0.62" stroke="#4c52bf" stroke-opacity="0.34" stroke-width="2"/>
      <text x="34" y="42" fill="#f6d86b" fill-opacity="0.98" font-size="21" font-family="Inter, Segoe UI, Arial, sans-serif" letter-spacing="3.2">1017 • ACCESSORY • CELESTIAL CLOAK</text>
      <text x="34" y="86" fill="#ffffff" font-size="38" font-weight="700" font-family="Inter, Segoe UI, Arial, sans-serif">Starlight Mantle</text>
      <text x="34" y="132" fill="#ffffff" fill-opacity="0.76" font-size="20" font-family="Inter, Segoe UI, Arial, sans-serif">A mythic mantle woven from captured night, threaded with living constellations,</text>
      <text x="34" y="160" fill="#ffffff" fill-opacity="0.76" font-size="20" font-family="Inter, Segoe UI, Arial, sans-serif">soft aurora folds, and a royal inner glow that makes the wearer look sky-crowned.</text>
      <text x="790" y="44" text-anchor="end" fill="#ffffff" fill-opacity="0.94" font-size="24" font-family="Inter, Segoe UI, Arial, sans-serif" letter-spacing="2.4">MYTHIC</text>
      <text x="790" y="78" text-anchor="end" fill="#c8ceff" fill-opacity="0.78" font-size="16" font-family="Inter, Segoe UI, Arial, sans-serif" letter-spacing="2">RARITY TIER</text>
    </g>
  </g>
</svg>
